<svg width="428" height="414" viewBox="0 0 428 414" fill="none" xmlns="http://www.w3.org/2000/svg">
<g clip-path="url(#clip0_20_2)">
<path d="M43.7 274.7L29.95 274.98L22.98 275.09C20.65 275.14 18.31 275.13 15.97 275.15H15.53V274.7L15.48 262.98V262.48H15.98L29.85 262.54C34.47 262.54 39.09 262.65 43.72 262.7H44V262.97C43.98 264.96 43.91 266.93 43.87 268.89L43.73 274.69L43.7 274.7ZM43.7 274.7L43.56 268.78C43.51 266.83 43.45 264.9 43.43 262.98L43.7 263.25C39.08 263.3 34.46 263.41 29.83 263.41L15.96 263.47L16.46 262.97L16.41 274.69L15.96 274.24C18.25 274.26 20.53 274.24 22.82 274.29L29.71 274.4L43.69 274.68L43.7 274.7Z" fill="#EBEBEB"/>
<path d="M28.23 289.47L14.48 289.75L7.51001 289.86C5.18001 289.91 2.84001 289.9 0.50001 289.92H0.0600098V289.47L0.0100098 277.75V277.25H0.51001L14.38 277.31C19 277.31 23.62 277.42 28.25 277.47H28.53V277.74C28.51 279.73 28.44 281.7 28.4 283.66L28.26 289.46L28.23 289.47ZM28.23 289.47L28.09 283.55C28.04 281.6 27.98 279.67 27.96 277.75L28.23 278.02C23.61 278.07 18.99 278.18 14.36 278.18L0.49001 278.24L0.99001 277.74L0.94001 289.46L0.49001 289.01C2.78001 289.03 5.06001 289.01 7.35001 289.06L14.24 289.17L28.22 289.45L28.23 289.47Z" fill="#EBEBEB"/>
<path d="M222.97 128.62L209.22 128.9L202.25 129.01C199.92 129.06 197.58 129.05 195.24 129.07H194.8V128.62L194.75 116.9V116.4H195.25L209.12 116.46C213.74 116.46 218.36 116.57 222.99 116.62H223.27V116.89C223.25 118.88 223.18 120.85 223.14 122.81L223 128.61L222.97 128.62ZM222.97 128.62L222.83 122.7C222.78 120.75 222.72 118.82 222.7 116.9L222.97 117.17C218.35 117.22 213.73 117.33 209.1 117.33L195.23 117.39L195.73 116.89L195.68 128.61L195.23 128.16C197.52 128.18 199.8 128.16 202.09 128.22L208.98 128.33L222.96 128.61L222.97 128.62Z" fill="#EBEBEB"/>
<path d="M207.24 143.4L193.49 143.68L186.52 143.79C184.19 143.84 181.85 143.83 179.51 143.84H179.07V143.39L179.02 131.67V131.17H179.52L193.39 131.23C198.01 131.23 202.63 131.34 207.26 131.39H207.54V131.66C207.52 133.65 207.45 135.62 207.41 137.58L207.27 143.38L207.24 143.4ZM207.24 143.4L207.1 137.48C207.05 135.53 206.99 133.6 206.97 131.68L207.24 131.95C202.62 132 198 132.11 193.37 132.11L179.5 132.17L180 131.67L179.95 143.39L179.5 142.94C181.79 142.96 184.07 142.94 186.36 143L193.25 143.11L207.23 143.39L207.24 143.4Z" fill="#EBEBEB"/>
<path d="M427.08 289.47L413.33 289.75L406.36 289.86C404.03 289.91 401.69 289.9 399.35 289.92H398.91V289.47L398.86 277.75V277.25H399.36L413.23 277.31C417.85 277.31 422.47 277.42 427.1 277.47H427.38V277.74C427.36 279.73 427.29 281.7 427.25 283.66L427.11 289.46L427.08 289.47ZM427.08 289.47L426.94 283.55C426.89 281.6 426.83 279.67 426.81 277.75L427.08 278.02C422.46 278.07 417.84 278.18 413.21 278.18L399.34 278.24L399.84 277.74L399.79 289.46L399.34 289.01C401.63 289.03 403.91 289.01 406.2 289.06L413.09 289.17L427.07 289.45L427.08 289.47Z" fill="#EBEBEB"/>
<path d="M411.61 12.22L397.86 12.5L390.89 12.61C388.56 12.66 386.22 12.65 383.88 12.67H383.44V12.22L383.39 0.5V0H383.89L397.76 0.06C402.38 0.06 407 0.17 411.63 0.22H411.91V0.49C411.89 2.48 411.82 4.45 411.78 6.41L411.64 12.21L411.61 12.22ZM411.61 12.22L411.47 6.3C411.42 4.35 411.36 2.42 411.34 0.5L411.61 0.77C406.99 0.82 402.37 0.93 397.74 0.93L383.87 0.99L384.37 0.49L384.32 12.21L383.87 11.76C386.16 11.78 388.44 11.76 390.73 11.81L397.62 11.92L411.6 12.2L411.61 12.22Z" fill="#EBEBEB"/>
<path d="M427.08 27L413.33 27.28L406.36 27.39C404.03 27.44 401.69 27.43 399.35 27.45H398.91V27L398.86 15.28V14.78H399.36L413.23 14.84C417.85 14.84 422.47 14.95 427.1 15H427.38V15.27C427.36 17.26 427.29 19.23 427.25 21.19L427.11 26.99L427.08 27ZM427.08 27L426.94 21.08C426.89 19.13 426.83 17.2 426.81 15.28L427.08 15.55C422.46 15.6 417.84 15.71 413.21 15.71L399.34 15.77L399.84 15.27L399.79 26.99L399.34 26.54C401.63 26.56 403.91 26.54 406.2 26.59L413.09 26.7L427.07 26.98L427.08 27Z" fill="#EBEBEB"/>
<path d="M28.23 12.22L14.48 12.5L7.51 12.61C5.18 12.66 2.84 12.65 0.5 12.67H0.06V12.22L0 0.5V0H0.5L14.37 0.06C18.99 0.06 23.61 0.17 28.24 0.22H28.52V0.49C28.5 2.48 28.43 4.45 28.39 6.41L28.25 12.21L28.23 12.22ZM28.23 12.22L28.09 6.3C28.04 4.35 27.98 2.42 27.96 0.5L28.23 0.77C23.61 0.82 18.99 0.93 14.36 0.93L0.49 0.99L0.99 0.49L0.94 12.21L0.49 11.76C2.78 11.78 5.06 11.76 7.35 11.81L14.24 11.92L28.22 12.2L28.23 12.22Z" fill="#EBEBEB"/>
<path d="M191.51 128.62L177.76 128.9L170.79 129.01C168.46 129.06 166.12 129.05 163.78 129.07H163.34V128.62L163.29 116.9V116.4H163.79L177.66 116.46C182.28 116.46 186.9 116.57 191.53 116.62H191.81V116.89C191.79 118.88 191.72 120.85 191.68 122.81L191.54 128.61L191.51 128.62ZM191.51 128.62L191.37 122.7C191.32 120.75 191.26 118.82 191.24 116.9L191.51 117.17C186.89 117.22 182.27 117.33 177.64 117.33L163.77 117.39L164.27 116.89L164.22 128.61L163.77 128.16C166.06 128.18 168.34 128.16 170.63 128.22L177.52 128.33L191.5 128.61L191.51 128.62Z" fill="#EBEBEB"/>
<path d="M78.6801 168.86V121.12H30.9401V168.86H78.6801Z" fill="#DBDBDB"/>
<path d="M71.28 161.45V128.52H38.35V161.45H71.28Z" fill="white"/>
<path d="M71.28 128.52H38.35V161.45L71.28 128.52Z" fill="#EBEBEB"/>
<path d="M26.28 168.86H30.95L30.95 121.12H26.28L26.28 168.86Z" fill="#C7C7C7"/>
<path d="M137.78 168.86V121.12H90.04V168.86H137.78Z" fill="#DBDBDB"/>
<path d="M130.38 161.45V128.52H97.45V161.45H130.38Z" fill="white"/>
<path d="M120.71 128.52H97.44V151.78L120.71 128.52Z" fill="#EBEBEB"/>
<path d="M85.37 168.86H90.04V121.12H85.37V168.86Z" fill="#C7C7C7"/>
<path d="M137.78 242.68V180.29H30.95V242.68H137.78Z" fill="#DBDBDB"/>
<path d="M129.98 234.96V188H38.75V234.96H129.98Z" fill="white"/>
<path d="M98.5501 188H38.7401V218.78L98.5501 188Z" fill="#EBEBEB"/>
<path d="M26.28 242.67H30.95L30.95 180.28H26.28L26.28 242.67Z" fill="#C7C7C7"/>
<path d="M137.77 109.99V3.16L30.94 3.16V109.99H137.77Z" fill="#DBDBDB"/>
<path d="M129.98 10.95H38.7401V102.18H129.98V10.95Z" fill="white"/>
<path d="M38.7401 76.64C52.6101 62.85 91.9101 23.75 104.54 10.96H38.7401V76.64Z" fill="#EBEBEB"/>
<path d="M26.28 109.98H30.95L30.95 3.15002H26.28L26.28 109.98Z" fill="#C7C7C7"/>
<path d="M213.79 413.57C325.534 413.57 416.12 403.743 416.12 391.62C416.12 379.497 325.534 369.67 213.79 369.67C102.046 369.67 11.46 379.497 11.46 391.62C11.46 403.743 102.046 413.57 213.79 413.57Z" fill="#EBEBEB"/>
<path d="M397.14 3.16H238.38C229.51 3.16 222.32 10.48 222.32 19.52V346.34C222.32 355.36 229.51 362.7 238.38 362.7H397.14C406.01 362.7 413.22 355.37 413.22 346.34V19.52C413.22 10.48 406.02 3.16 397.14 3.16ZM403.18 336.23C403.18 344.83 396.74 351.79 388.79 351.79H246.76C238.8 351.79 232.35 344.83 232.35 336.23V31.9C232.35 14.38 238.79 13.52 246.76 13.52H275.21C276.86 13.52 278.22 15.4 278.22 17.73V18.73C278.22 24.19 281.21 24.2 284.88 24.2H350.67C354.37 24.2 357.33 24.18 357.33 18.73V17.73C357.33 15.4 358.66 13.52 360.34 13.52H388.79C396.73 13.52 403.18 15.85 403.18 31.9V336.23Z" fill="#263238"/>
<path d="M326.74 17.4H308.79C308.18 17.4 307.68 16.9 307.68 16.29C307.68 15.68 308.18 15.18 308.79 15.18H326.74C327.35 15.18 327.85 15.68 327.85 16.29C327.85 16.9 327.35 17.4 326.74 17.4Z" fill="white"/>
<path d="M403.18 31.9V336.23C403.18 344.83 396.74 351.79 388.79 351.79H246.76C238.8 351.79 232.35 344.83 232.35 336.23V31.9C232.35 14.38 238.79 13.52 246.76 13.52H275.21C276.86 13.52 278.22 15.4 278.22 17.73V18.73C278.22 24.19 281.21 24.2 284.88 24.2H350.67C354.37 24.2 357.33 24.18 357.33 18.73V17.73C357.33 15.4 358.66 13.52 360.34 13.52H388.79C396.73 13.52 403.18 15.85 403.18 31.9Z" fill="white"/>
<g opacity="0.2">
<path opacity="0.4" d="M400.57 338.95C400.16 342.11 399.37 345.11 398.25 347.95C395.72 350.35 392.41 351.8 388.78 351.8H246.62C238.65 351.8 232.21 344.84 232.21 336.23V254.23C238.2 248.09 245.18 243.78 252.42 241.06C269.47 234.69 287.93 237.28 298.07 246.2C313.06 259.39 335.75 295.03 348.63 295.74C349.51 295.79 350.53 295.86 351.68 295.95C361.01 296.7 378.28 299.27 389.7 308.78C397.37 315.17 402.41 324.7 400.57 338.95Z" fill="#FFC727"/>
<path d="M388.79 352.29H246.63C238.41 352.29 231.72 345.08 231.72 336.22V259.36L231.83 259.22C234.41 255.92 237.36 252.63 240.6 249.42C244.07 245.98 247.96 243.02 252.19 240.62C273.74 228.33 298.97 232.91 309.99 244.2C315.07 249.42 320.84 257.52 326.94 266.09C335.61 278.28 344.58 290.88 351.97 295.52C353.55 296.51 355.02 297.11 356.35 297.29C365.78 298.53 379.27 301.45 389.99 308.36C396.45 312.51 401.05 317.62 403.66 323.56L403.7 323.76V336.22C403.7 340.86 401.85 345.27 398.62 348.31C395.91 350.88 392.42 352.29 388.81 352.29H388.79ZM232.72 259.71V336.22C232.72 344.53 238.96 351.29 246.63 351.29H388.79C392.14 351.29 395.38 349.97 397.91 347.58C400.94 344.72 402.68 340.58 402.68 336.22V323.86C400.15 318.15 395.69 313.22 389.43 309.2C378.86 302.39 365.52 299.5 356.19 298.28C354.72 298.08 353.11 297.44 351.41 296.37C343.86 291.62 334.83 278.94 326.1 266.67C320.02 258.13 314.28 250.06 309.25 244.9C298.49 233.87 273.8 229.43 252.67 241.49C248.52 243.85 244.7 246.76 241.29 250.14C238.13 253.28 235.24 256.5 232.71 259.72L232.72 259.71Z" fill="#263238"/>
<path opacity="0.4" d="M287.7 43.16C292.04 50.18 289.66 58.53 285.14 61.1C280.62 63.67 272.68 68.79 271.51 71.95C270.34 75.11 262.93 83.09 253.6 78.49C244.27 73.9 245.31 57.83 249.43 47.98C254.87 35 275.78 23.87 287.7 43.16Z" fill="#FFC727"/>
<path d="M258.21 81.33C255.92 81.33 253.65 80.7 251.52 79.45C242.01 73.87 244.69 57.49 249.49 48.17C253.53 40.33 262.97 34.41 271.45 34.39H271.49C276.68 34.39 283.92 36.46 289.04 46.27C290.98 50 291.35 54.35 290.05 58.2C289.04 61.18 287.16 63.51 284.88 64.58C278.87 67.4 272.03 71.33 270.85 73.88C269.95 75.82 266.55 79.33 262.1 80.72C260.8 81.13 259.5 81.33 258.2 81.33H258.21ZM271.5 35.39H271.46C263.32 35.41 254.26 41.1 250.38 48.63C245.57 57.97 243.46 73.57 252.03 78.59C255.16 80.43 258.45 80.82 261.81 79.77C265.97 78.47 269.13 75.24 269.95 73.47C271.54 70.05 280.63 65.49 284.46 63.69C286.5 62.73 288.19 60.62 289.11 57.89C290.32 54.3 289.98 50.23 288.16 46.74C283.28 37.37 276.41 35.39 271.49 35.39H271.5Z" fill="#263238"/>
<path d="M352.89 91.56C334.14 95.05 325.78 109.99 331.78 118C337.78 126.02 358.68 125.88 362.54 137.44C366.4 149 380.79 166.2 395.81 154.58C410.82 142.97 393.03 84.09 352.9 91.56H352.89Z" fill="#DBDBDB"/>
<path d="M379.36 163.32C377.24 163.32 375.14 162.87 373.08 161.96C364.76 158.32 358.62 147.78 356.85 139.25C355.49 132.7 348.33 129.11 341.41 125.63C336 122.91 330.89 120.35 328.65 116.48C326.75 113.2 326.88 109.04 328.99 105.07C332.07 99.3 340.02 92.82 353.12 91.95C380.68 90.13 390.91 115.85 393.39 123.78C398.39 139.76 396.3 155.89 388.61 160.51C385.5 162.38 382.4 163.31 379.36 163.31V163.32ZM353.18 92.96C340.49 93.8 332.82 100.02 329.87 105.55C327.89 109.26 327.76 112.97 329.51 115.99C331.6 119.6 336.58 122.1 341.85 124.74C348.99 128.32 356.37 132.03 357.82 139.05C359.54 147.32 365.46 157.54 373.48 161.04C378.2 163.11 383.12 162.64 388.1 159.65C395.4 155.26 397.31 139.64 392.44 124.08C390.01 116.33 380.03 91.17 353.19 92.95L353.18 92.96Z" fill="#263238"/>
</g>
<path d="M270.3 20.36C270.21 20.45 270.12 20.54 270.03 20.63C269.98 20.68 269.93 20.73 269.87 20.79C269.13 20.07 268.25 19.69 267.22 19.69C266.19 19.69 265.31 20.07 264.57 20.79C264.52 20.74 264.47 20.69 264.42 20.64C264.33 20.55 264.24 20.46 264.15 20.37C264.15 20.37 264.16 20.35 264.17 20.35C264.29 20.25 264.4 20.14 264.52 20.04C264.77 19.84 265.04 19.67 265.32 19.53C265.66 19.36 266.01 19.24 266.39 19.17C266.57 19.14 266.74 19.12 266.92 19.1C266.98 19.1 267.37 19.1 267.39 19.1C267.51 19.1 267.63 19.11 267.75 19.13C268.09 19.17 268.41 19.25 268.73 19.36C268.96 19.44 269.18 19.55 269.39 19.67C269.61 19.8 269.82 19.94 270.02 20.11C270.12 20.19 270.21 20.28 270.31 20.37L270.3 20.36Z" fill="#C7C7C7"/>
<path d="M265.45 21.65C265.3 21.51 265.16 21.36 265.02 21.22C265.51 20.73 266.1 20.43 266.79 20.33C267.82 20.19 268.7 20.5 269.45 21.21C269.3 21.36 269.16 21.5 269.01 21.64C268.52 21.16 267.93 20.91 267.23 20.91C266.54 20.91 265.95 21.17 265.45 21.65Z" fill="#C7C7C7"/>
<path d="M268.57 22.09C268.43 22.23 268.28 22.38 268.14 22.52C267.89 22.28 267.59 22.14 267.23 22.14C266.87 22.14 266.57 22.27 266.32 22.52C266.18 22.38 266.03 22.23 265.89 22.09C266.58 21.37 267.81 21.31 268.57 22.09Z" fill="#C7C7C7"/>
<path d="M267.61 22.91C267.61 23.13 267.44 23.3 267.22 23.3C267 23.3 266.83 23.13 266.83 22.91C266.83 22.69 267 22.52 267.22 22.52C267.44 22.52 267.61 22.69 267.61 22.91Z" fill="#C7C7C7"/>
<path d="M243.5 21.19C243.5 20.56 244.01 20.06 244.63 20.06C245.25 20.06 245.76 20.57 245.76 21.19C245.76 21.81 245.25 22.32 244.63 22.32C244.01 22.32 243.5 21.81 243.5 21.19Z" fill="#C7C7C7"/>
<path d="M247.06 21.19C247.06 20.56 247.57 20.06 248.19 20.06C248.81 20.06 249.32 20.57 249.32 21.19C249.32 21.81 248.81 22.32 248.19 22.32C247.57 22.32 247.06 21.81 247.06 21.19Z" fill="#C7C7C7"/>
<path d="M250.63 21.19C250.63 20.56 251.14 20.06 251.76 20.06C252.38 20.06 252.89 20.57 252.89 21.19C252.89 21.81 252.38 22.32 251.76 22.32C251.14 22.32 250.63 21.81 250.63 21.19Z" fill="#C7C7C7"/>
<path d="M254.2 21.19C254.2 20.56 254.71 20.06 255.33 20.06C255.95 20.06 256.46 20.57 256.46 21.19C256.46 21.81 255.95 22.32 255.33 22.32C254.71 22.32 254.2 21.81 254.2 21.19Z" fill="#C7C7C7"/>
<path d="M257.76 21.19C257.76 20.56 258.27 20.06 258.89 20.06C259.51 20.06 260.02 20.57 260.02 21.19C260.02 21.81 259.51 22.32 258.89 22.32C258.27 22.32 257.76 21.81 257.76 21.19Z" fill="#C7C7C7"/>
<path d="M390.26 23.55H381.26V19.5H390.26V23.55ZM381.51 23.3H390.01V19.75H381.51V23.3Z" fill="#C7C7C7"/>
<path d="M387.86 20.12H381.92V22.94H387.86V20.12Z" fill="#C7C7C7"/>
<path d="M391.19 20.39H390.37V22.67H391.19V20.39Z" fill="#C7C7C7"/>
<path d="M306.47 316.38C306.47 317.78 305.34 318.91 303.94 318.91C302.54 318.91 301.41 317.78 301.41 316.38C301.41 314.98 302.54 313.85 303.94 313.85C305.34 313.85 306.47 314.98 306.47 316.38Z" fill="#DBDBDB"/>
<path d="M321.88 316.38C321.88 318.5 320.17 320.21 318.05 320.21C315.93 320.21 314.22 318.49 314.22 316.38C314.22 314.27 315.94 312.55 318.05 312.55C320.16 312.55 321.88 314.27 321.88 316.38Z" fill="#FFC727"/>
<path d="M334.7 316.38C334.7 317.78 333.57 318.91 332.17 318.91C330.77 318.91 329.64 317.78 329.64 316.38C329.64 314.98 330.77 313.85 332.17 313.85C333.57 313.85 334.7 314.98 334.7 316.38Z" fill="#DBDBDB"/>
<path d="M297.91 145.38V137.9C297.91 137.52 298.21 137.2 298.61 137.2C299.01 137.2 299.32 137.52 299.32 137.9V144.67H302.76C303.13 144.67 303.46 144.99 303.46 145.38C303.46 145.77 303.13 146.08 302.76 146.08H298.61C298.22 146.08 297.91 145.76 297.91 145.38Z" fill="#FFC727"/>
<path d="M311.54 138.3C312.33 139.14 312.82 140.25 312.82 141.51C312.82 142.77 312.33 143.89 311.54 144.72C310.79 145.54 309.68 146.08 308.51 146.08C307.34 146.08 306.18 145.55 305.4 144.72C304.61 143.9 304.14 142.77 304.14 141.51C304.14 140.25 304.61 139.14 305.4 138.3C306.17 137.46 307.29 136.94 308.51 136.94C309.73 136.94 310.79 137.46 311.54 138.3ZM311.38 141.51C311.38 140.65 311.04 139.85 310.52 139.29C309.99 138.72 309.28 138.39 308.52 138.39C307.71 138.39 307 138.72 306.47 139.29C305.94 139.85 305.61 140.65 305.61 141.51C305.61 142.37 305.94 143.17 306.47 143.72C307 144.29 307.71 144.63 308.52 144.63C309.28 144.63 309.99 144.29 310.52 143.72C311.04 143.17 311.38 142.38 311.38 141.51Z" fill="#FFC727"/>
<path d="M314.93 141.52C314.93 138.97 317.03 136.94 319.61 136.94C320.69 136.94 321.72 137.31 322.5 137.93C322.83 138.17 322.88 138.64 322.64 138.96C322.4 139.26 321.93 139.33 321.61 139.07C321.06 138.65 320.37 138.38 319.61 138.38C318.7 138.38 317.9 138.72 317.33 139.31C316.73 139.88 316.38 140.65 316.38 141.52C316.38 142.39 316.74 143.13 317.33 143.7C317.9 144.28 318.7 144.63 319.61 144.63C320.24 144.63 320.84 144.44 321.35 144.15V142.41H319.54C319.15 142.41 318.82 142.08 318.82 141.69C318.82 141.3 319.15 140.98 319.54 140.98H322.06C322.47 140.98 322.8 141.28 322.8 141.69V144.49C322.8 144.58 322.77 144.63 322.76 144.71C322.75 144.73 322.75 144.75 322.73 144.77C322.69 144.9 322.62 145 322.49 145.09C321.69 145.71 320.69 146.08 319.61 146.08C317.04 146.08 314.93 144.06 314.93 141.53V141.52Z" fill="#FFC727"/>
<path d="M325.74 137.9C325.74 137.51 326.04 137.2 326.44 137.2C326.84 137.2 327.15 137.5 327.15 137.9V145.38C327.15 145.77 326.82 146.08 326.44 146.08C326.06 146.08 325.74 145.78 325.74 145.38V137.9Z" fill="#FFC727"/>
<path d="M330.92 145.38C330.92 145.76 330.6 146.08 330.24 146.08C329.85 146.08 329.54 145.76 329.54 145.38V138.01C329.53 137.78 329.63 137.55 329.82 137.41C330.14 137.19 330.57 137.26 330.78 137.56L334.87 143.23V138.01C334.87 137.64 335.17 137.32 335.56 137.32C335.95 137.32 336.26 137.64 336.26 138.01V145.38C336.26 145.76 335.94 146.08 335.56 146.08C335.36 146.08 335.17 145.98 335.04 145.83C335.02 145.81 334.99 145.78 334.98 145.75L330.92 140.12V145.38Z" fill="#FFC727"/>
<path d="M252.16 172.65V168.51C252.16 168.29 252.33 168.12 252.55 168.12H254.84C255.04 168.12 255.23 168.29 255.23 168.51C255.23 168.73 255.05 168.9 254.84 168.9H252.94V170.18H254.57C254.78 170.18 254.96 170.36 254.96 170.57C254.96 170.79 254.78 170.96 254.57 170.96H252.94V172.25H254.84C255.04 172.25 255.23 172.42 255.23 172.64C255.23 172.86 255.05 173.03 254.84 173.03H252.57H252.56C252.34 173.03 252.17 172.86 252.17 172.65H252.16Z" fill="#263238"/>
<path d="M259.17 170.98V172.66C259.17 172.86 259 173.03 258.8 173.03C258.6 173.03 258.42 172.86 258.42 172.66V170.98C258.42 170.59 258.09 170.28 257.7 170.28C257.31 170.28 256.99 170.6 256.99 171V172.66C256.99 172.66 256.99 172.7 256.99 172.71V172.73C256.99 172.73 256.99 172.76 256.97 172.77V172.81C256.91 172.94 256.77 173.03 256.62 173.03C256.59 173.03 256.57 173.03 256.55 173.03C256.38 172.99 256.25 172.85 256.25 172.67V171.01V169.92C256.25 169.7 256.42 169.54 256.62 169.54C256.77 169.54 256.9 169.62 256.96 169.75C257.18 169.62 257.44 169.54 257.71 169.54C258.15 169.54 258.54 169.72 258.81 170.02C259.07 169.72 259.47 169.54 259.91 169.54C260.72 169.54 261.37 170.2 261.37 171.01V172.67C261.37 172.87 261.2 173.04 261 173.04C260.8 173.04 260.62 172.87 260.62 172.67V171.01C260.62 170.61 260.3 170.29 259.91 170.29C259.52 170.29 259.2 170.61 259.18 170.99L259.17 170.98Z" fill="#263238"/>
<path d="M265.86 171.29V172.66C265.86 172.86 265.69 173.03 265.49 173.03C265.31 173.03 265.17 172.9 265.13 172.73C264.86 172.92 264.55 173.03 264.2 173.03C263.72 173.03 263.31 172.83 263.01 172.52C262.71 172.2 262.53 171.76 262.53 171.29C262.53 170.82 262.7 170.37 263.01 170.06C263.31 169.74 263.72 169.53 264.2 169.53C264.55 169.53 264.87 169.65 265.13 169.84C265.17 169.67 265.31 169.53 265.49 169.53C265.69 169.53 265.86 169.7 265.86 169.91V171.29ZM265.12 171.29C265.12 171 265.02 170.74 264.85 170.57C264.68 170.38 264.44 170.28 264.2 170.28C263.96 170.28 263.71 170.38 263.55 170.57C263.38 170.75 263.28 171 263.28 171.29C263.28 171.58 263.38 171.83 263.55 172.01C263.71 172.18 263.95 172.28 264.2 172.28C264.45 172.28 264.68 172.18 264.85 172.01C265.02 171.83 265.12 171.57 265.12 171.29Z" fill="#263238"/>
<path d="M268 168.65C268 168.86 267.84 169.04 267.62 169.04C267.4 169.04 267.24 168.86 267.24 168.65V168.5C267.24 168.29 267.41 168.12 267.62 168.12C267.83 168.12 268 168.29 268 168.5V168.65ZM268 169.92V172.65C268 172.86 267.84 173.03 267.62 173.03C267.4 173.03 267.24 172.86 267.24 172.65V169.92C267.24 169.7 267.41 169.53 267.62 169.53C267.83 169.53 268 169.69 268 169.92Z" fill="#263238"/>
<path d="M269.49 168.13C269.71 168.13 269.88 168.31 269.88 168.52V172.66C269.88 172.87 269.7 173.05 269.49 173.05C269.28 173.05 269.1 172.87 269.1 172.66V168.52C269.1 168.31 269.28 168.13 269.49 168.13Z" fill="#263238"/>
<path d="M253.8 199.49H252.94V201.01C252.94 201.22 252.76 201.4 252.55 201.4C252.34 201.4 252.16 201.22 252.16 201.01V196.87C252.16 196.65 252.33 196.48 252.55 196.48H253.8C254.63 196.48 255.31 197.15 255.31 197.99C255.31 198.83 254.64 199.48 253.8 199.48V199.49ZM252.94 198.71H253.8C254.21 198.71 254.52 198.39 254.53 198C254.53 197.59 254.21 197.27 253.8 197.27H252.94V198.71Z" fill="#263238"/>
<path d="M259.13 199.65V201.02C259.13 201.22 258.96 201.39 258.76 201.39C258.58 201.39 258.44 201.26 258.4 201.09C258.13 201.28 257.82 201.39 257.47 201.39C256.99 201.39 256.58 201.19 256.28 200.88C255.98 200.56 255.8 200.12 255.8 199.65C255.8 199.18 255.97 198.73 256.28 198.42C256.58 198.1 256.99 197.89 257.47 197.89C257.82 197.89 258.14 198.01 258.4 198.2C258.44 198.02 258.58 197.89 258.76 197.89C258.96 197.89 259.13 198.06 259.13 198.27V199.65ZM258.39 199.65C258.39 199.36 258.29 199.1 258.12 198.93C257.95 198.74 257.71 198.64 257.47 198.64C257.23 198.64 256.98 198.74 256.82 198.93C256.65 199.11 256.55 199.36 256.55 199.65C256.55 199.94 256.65 200.19 256.82 200.37C256.98 200.54 257.22 200.64 257.47 200.64C257.72 200.64 257.95 200.54 258.12 200.37C258.29 200.19 258.39 199.93 258.39 199.65Z" fill="#263238"/>
<path d="M260.33 200.4C260.46 200.23 260.7 200.21 260.86 200.34C261.04 200.49 261.36 200.66 261.63 200.65C261.82 200.65 261.99 200.59 262.11 200.52C262.21 200.44 262.24 200.37 262.24 200.31C262.24 200.28 262.24 200.26 262.22 200.24C262.22 200.22 262.18 200.19 262.13 200.16C262.03 200.09 261.82 200.01 261.57 199.96C261.35 199.92 261.14 199.86 260.96 199.78C260.77 199.69 260.6 199.56 260.48 199.37C260.4 199.24 260.36 199.09 260.36 198.93C260.36 198.61 260.54 198.33 260.77 198.16C261.02 197.99 261.31 197.9 261.63 197.9C262.11 197.9 262.46 198.13 262.68 198.29C262.85 198.4 262.9 198.63 262.79 198.81C262.68 198.98 262.45 199.03 262.27 198.91C262.05 198.76 261.85 198.65 261.63 198.65C261.45 198.65 261.3 198.71 261.21 198.78C261.12 198.84 261.1 198.91 261.1 198.94C261.1 198.97 261.1 198.97 261.11 199C261.11 199.01 261.14 199.04 261.19 199.07C261.28 199.13 261.46 199.2 261.7 199.24C261.93 199.28 262.15 199.35 262.35 199.44C262.54 199.52 262.73 199.66 262.85 199.85C262.93 199.99 262.98 200.15 262.98 200.31C262.98 200.65 262.79 200.94 262.54 201.12C262.29 201.3 261.97 201.4 261.63 201.4C261.08 201.4 260.66 201.14 260.38 200.92C260.23 200.79 260.21 200.56 260.33 200.4Z" fill="#263238"/>
<path d="M263.71 200.4C263.84 200.23 264.08 200.21 264.24 200.34C264.42 200.49 264.74 200.66 265.01 200.65C265.2 200.65 265.37 200.59 265.49 200.52C265.59 200.44 265.62 200.37 265.62 200.31C265.62 200.28 265.62 200.26 265.6 200.24C265.6 200.22 265.56 200.19 265.51 200.16C265.41 200.09 265.2 200.01 264.95 199.96C264.73 199.92 264.52 199.86 264.34 199.78C264.15 199.69 263.98 199.56 263.86 199.37C263.78 199.24 263.74 199.09 263.74 198.93C263.74 198.61 263.92 198.33 264.15 198.16C264.4 197.99 264.69 197.9 265.01 197.9C265.49 197.9 265.84 198.13 266.06 198.29C266.23 198.4 266.28 198.63 266.17 198.81C266.06 198.98 265.83 199.03 265.65 198.91C265.43 198.76 265.23 198.65 265.01 198.65C264.83 198.65 264.68 198.71 264.59 198.78C264.5 198.84 264.48 198.91 264.48 198.94C264.48 198.97 264.48 198.97 264.49 199C264.49 199.01 264.52 199.04 264.57 199.07C264.66 199.13 264.84 199.2 265.08 199.24C265.31 199.28 265.53 199.35 265.73 199.44C265.92 199.52 266.11 199.66 266.23 199.85C266.31 199.99 266.36 200.15 266.36 200.31C266.36 200.65 266.17 200.94 265.92 201.12C265.67 201.3 265.35 201.4 265.01 201.4C264.46 201.4 264.04 201.14 263.76 200.92C263.61 200.79 263.59 200.56 263.71 200.4Z" fill="#263238"/>
<path d="M271.73 198.46L270.57 201.18C270.57 201.18 270.56 201.22 270.54 201.24C270.54 201.25 270.52 201.27 270.5 201.28H270.49C270.48 201.29 270.46 201.31 270.45 201.32C270.45 201.32 270.45 201.32 270.45 201.33C270.43 201.34 270.41 201.36 270.39 201.37C270.38 201.37 270.36 201.37 270.33 201.38H270.32C270.32 201.38 270.28 201.38 270.25 201.38C270.23 201.38 270.21 201.38 270.19 201.38H270.18C270.18 201.38 270.15 201.37 270.13 201.37H270.12C270.12 201.37 270.08 201.34 270.06 201.32C270.06 201.32 270.03 201.29 270.02 201.28H270.01C270 201.27 269.98 201.25 269.97 201.24C269.96 201.22 269.95 201.2 269.94 201.18L269.43 199.97L268.93 201.18C268.93 201.18 268.91 201.22 268.89 201.24C268.89 201.24 268.86 201.27 268.85 201.29C268.84 201.3 268.82 201.32 268.81 201.33C268.78 201.35 268.77 201.36 268.75 201.37H268.74C268.73 201.37 268.71 201.37 268.7 201.38H268.69C268.69 201.38 268.64 201.38 268.62 201.38C268.59 201.38 268.57 201.38 268.55 201.38H268.53C268.53 201.38 268.5 201.37 268.49 201.37C268.49 201.37 268.487 201.37 268.48 201.37C268.48 201.37 268.43 201.35 268.42 201.33C268.42 201.33 268.4 201.31 268.38 201.29H268.37C268.37 201.29 268.35 201.26 268.34 201.24C268.34 201.24 268.32 201.2 268.3 201.18L267.15 198.46C267.07 198.27 267.15 198.06 267.35 197.98C267.52 197.9 267.74 197.98 267.81 198.19L268.64 200.08L269.13 198.91C269.19 198.77 269.33 198.69 269.47 198.69C269.62 198.69 269.76 198.77 269.81 198.91L270.31 200.08L271.14 198.19C271.21 197.99 271.43 197.9 271.61 197.98C271.8 198.06 271.9 198.27 271.81 198.46H271.73Z" fill="#263238"/>
<path d="M273.4 200.89C273.1 200.58 272.92 200.15 272.92 199.66C272.92 199.17 273.1 198.77 273.4 198.43C273.72 198.1 274.12 197.9 274.61 197.9C275.1 197.9 275.49 198.1 275.78 198.43C276.1 198.77 276.27 199.18 276.27 199.66C276.27 200.14 276.1 200.59 275.78 200.89C275.49 201.22 275.07 201.42 274.61 201.42C274.15 201.42 273.72 201.22 273.4 200.89ZM273.68 199.65C273.68 199.95 273.77 200.2 273.93 200.39C274.11 200.56 274.34 200.65 274.6 200.65C274.85 200.65 275.07 200.56 275.24 200.39C275.41 200.19 275.51 199.95 275.51 199.65C275.51 199.35 275.41 199.11 275.24 198.92C275.06 198.77 274.84 198.65 274.6 198.65C274.33 198.65 274.1 198.76 273.93 198.92C273.77 199.11 273.68 199.36 273.68 199.65Z" fill="#263238"/>
<path d="M279.47 198.27C279.47 198.47 279.31 198.64 279.1 198.64C278.94 198.64 278.8 198.68 278.68 198.77C278.55 198.85 278.44 198.97 278.36 199.11C278.19 199.33 278.11 199.6 278.07 199.7V201.03C278.07 201.23 277.9 201.4 277.68 201.4C277.46 201.4 277.31 201.23 277.31 201.03V198.27C277.31 198.07 277.48 197.91 277.68 197.91C277.88 197.91 278.07 198.07 278.07 198.27V198.32C278.07 198.32 278.17 198.21 278.22 198.18C278.45 198.03 278.75 197.9 279.1 197.91C279.31 197.91 279.47 198.07 279.47 198.27Z" fill="#263238"/>
<path d="M283.39 201.02C283.39 201.22 283.22 201.4 283.01 201.4C282.82 201.4 282.67 201.27 282.64 201.1C282.37 201.28 282.04 201.4 281.69 201.4C280.74 201.4 279.99 200.6 279.99 199.65C279.99 198.7 280.75 197.89 281.69 197.89C282.03 197.89 282.37 198 282.63 198.18V196.86C282.63 196.66 282.8 196.48 283.02 196.48C283.24 196.48 283.4 196.66 283.4 196.86V199.64V201.01L283.39 201.02ZM281.69 198.66C281.44 198.66 281.21 198.77 281.03 198.95C280.85 199.12 280.75 199.38 280.75 199.66C280.75 199.94 280.85 200.18 281.03 200.35C281.2 200.53 281.44 200.64 281.69 200.64C281.94 200.64 282.17 200.53 282.35 200.35C282.53 200.18 282.63 199.92 282.63 199.66C282.63 199.38 282.53 199.13 282.35 198.95C282.18 198.77 281.95 198.66 281.69 198.66Z" fill="#263238"/>
<path d="M251.43 232.22L268.02 232.07L284.6 232.02L317.77 231.92L350.94 232.02L367.53 232.07L384.12 232.22L367.53 232.36L350.94 232.42L317.77 232.51L284.6 232.42L268.02 232.36L251.43 232.22Z" fill="#455A64"/>
<path d="M251.43 161.52L268.02 161.38L284.6 161.33L317.77 161.23L350.94 161.33L367.53 161.38L384.12 161.52L367.53 161.67L350.94 161.72L317.77 161.82L284.6 161.72L268.02 161.67L251.43 161.52Z" fill="#EBEBEB"/>
<path d="M337.3 122.73C334.07 124.74 330.49 126.27 326.59 127.21C316.51 129.67 306.41 127.78 298.24 122.71C290.25 117.77 284.1 109.8 281.69 99.95C276.83 80.01 289.03 59.91 308.97 55.05C328.89 50.18 348.99 62.39 353.87 82.33C357.78 98.37 350.63 114.51 337.31 122.73H337.3Z" fill="#FFC727"/>
<path d="M318.692 98.1697C324.912 97.6562 329.537 92.1978 329.024 85.9782C328.51 79.7585 323.052 75.1328 316.832 75.6463C310.613 76.1599 305.987 81.6182 306.501 87.8379C307.014 94.0575 312.472 98.6832 318.692 98.1697Z" fill="white"/>
<path d="M337.3 118.07V122.73C334.07 124.74 330.49 126.27 326.59 127.21C316.51 129.67 306.41 127.78 298.24 122.71V118.06C298.24 107.3 306.98 98.53 317.77 98.53C328.56 98.53 337.3 107.3 337.3 118.06V118.07Z" fill="white"/>
<path d="M251.43 280.65C255.96 280.54 260.49 280.46 265.02 280.42L278.61 280.35L292.2 280.42C296.73 280.46 301.26 280.54 305.79 280.65C301.26 280.76 296.73 280.84 292.2 280.88L278.61 280.95L265.02 280.88C260.49 280.84 255.96 280.76 251.43 280.65Z" fill="#455A64"/>
<path d="M329.77 280.65C334.3 280.54 338.83 280.46 343.36 280.42L356.95 280.35L370.54 280.42C375.07 280.46 379.6 280.54 384.13 280.65C379.6 280.76 375.07 280.84 370.54 280.88L356.95 280.95L343.36 280.88C338.83 280.84 334.3 280.76 329.77 280.65Z" fill="#455A64"/>
<path d="M314.44 281.91C314.13 281.6 313.95 281.15 313.95 280.65C313.95 280.15 314.14 279.74 314.44 279.4C314.76 279.06 315.17 278.86 315.67 278.86C316.17 278.86 316.57 279.07 316.86 279.4C317.18 279.74 317.36 280.16 317.36 280.65C317.36 281.14 317.18 281.59 316.86 281.91C316.57 282.25 316.14 282.45 315.67 282.45C315.2 282.45 314.76 282.24 314.44 281.91ZM314.72 280.66C314.72 280.97 314.81 281.22 314.98 281.42C315.16 281.59 315.39 281.68 315.66 281.68C315.91 281.68 316.14 281.59 316.32 281.42C316.5 281.22 316.6 280.97 316.6 280.66C316.6 280.35 316.5 280.11 316.32 279.92C316.14 279.76 315.91 279.65 315.66 279.65C315.39 279.65 315.15 279.76 314.98 279.92C314.82 280.11 314.72 280.37 314.72 280.66Z" fill="#455A64"/>
<path d="M320.63 279.24C320.63 279.44 320.47 279.62 320.25 279.62C320.09 279.62 319.94 279.66 319.82 279.76C319.68 279.85 319.58 279.97 319.49 280.1C319.32 280.33 319.23 280.6 319.2 280.7V282.06C319.2 282.27 319.02 282.44 318.81 282.44C318.6 282.44 318.43 282.27 318.43 282.06V279.25C318.43 279.04 318.6 278.88 318.81 278.88C319.02 278.88 319.2 279.04 319.2 279.25V279.3C319.24 279.25 319.3 279.19 319.35 279.16C319.59 279 319.89 278.87 320.25 278.88C320.46 278.88 320.63 279.04 320.63 279.25V279.24Z" fill="#455A64"/>
<path d="M322.53 289.92H312.03V300.42H322.53V289.92Z" fill="#455A64"/>
<path d="M315.72 296.31H314.32V294.7H315.69C315.69 294.58 315.7 294.48 315.71 294.39C315.71 293.97 315.71 293.54 315.74 293.12C315.83 292.2 316.39 291.55 317.31 291.42C317.88 291.34 318.47 291.41 319.06 291.41V292.87C318.85 292.87 318.64 292.87 318.43 292.87C318.24 292.87 318.05 292.87 317.87 292.91C317.61 292.97 317.43 293.14 317.42 293.42C317.4 293.83 317.42 294.24 317.42 294.69H319.02C318.95 295.22 318.9 295.7 318.82 296.19C318.82 296.24 318.69 296.3 318.62 296.3C318.24 296.31 317.85 296.3 317.43 296.3V300.43H315.73V296.31H315.72Z" fill="white"/>
<path d="M351.36 245.91H283.09V267.62H351.36V245.91Z" fill="#FFC727"/>
<path d="M302.16 259.81V253.93C302.16 253.63 302.4 253.38 302.71 253.38C303.02 253.38 303.27 253.63 303.27 253.93V259.25H305.97C306.26 259.25 306.52 259.5 306.52 259.81C306.52 260.12 306.26 260.36 305.97 260.36H302.71C302.4 260.36 302.16 260.11 302.16 259.81Z" fill="white"/>
<path d="M312.88 254.25C313.5 254.91 313.89 255.78 313.89 256.77C313.89 257.76 313.5 258.64 312.88 259.29C312.29 259.94 311.42 260.36 310.5 260.36C309.58 260.36 308.67 259.94 308.06 259.29C307.44 258.64 307.07 257.76 307.07 256.77C307.07 255.78 307.44 254.91 308.06 254.25C308.67 253.59 309.54 253.18 310.5 253.18C311.46 253.18 312.29 253.59 312.88 254.25ZM312.75 256.77C312.75 256.09 312.48 255.46 312.07 255.03C311.65 254.58 311.09 254.32 310.49 254.32C309.85 254.32 309.29 254.58 308.88 255.03C308.46 255.47 308.2 256.1 308.2 256.77C308.2 257.44 308.46 258.08 308.88 258.5C309.3 258.95 309.86 259.22 310.49 259.22C311.09 259.22 311.65 258.95 312.07 258.5C312.48 258.07 312.75 257.44 312.75 256.77Z" fill="white"/>
<path d="M315.54 256.78C315.54 254.78 317.19 253.18 319.22 253.18C320.07 253.18 320.87 253.47 321.49 253.96C321.75 254.15 321.79 254.52 321.6 254.77C321.41 255.01 321.04 255.06 320.79 254.86C320.36 254.53 319.81 254.32 319.21 254.32C318.49 254.32 317.86 254.59 317.42 255.05C316.95 255.5 316.67 256.11 316.67 256.78C316.67 257.45 316.95 258.04 317.42 258.49C317.87 258.95 318.5 259.22 319.21 259.22C319.71 259.22 320.18 259.07 320.58 258.84V257.47H319.15C318.84 257.47 318.58 257.21 318.58 256.9C318.58 256.59 318.84 256.34 319.15 256.34H321.13C321.45 256.34 321.71 256.58 321.71 256.9V259.1C321.71 259.17 321.69 259.21 321.68 259.27C321.67 259.29 321.67 259.3 321.66 259.32C321.63 259.42 321.57 259.5 321.47 259.57C320.84 260.06 320.05 260.35 319.21 260.35C317.19 260.35 315.53 258.77 315.53 256.77L315.54 256.78Z" fill="white"/>
<path d="M324.04 253.93C324.04 253.62 324.28 253.38 324.59 253.38C324.9 253.38 325.15 253.62 325.15 253.93V259.81C325.15 260.12 324.89 260.36 324.59 260.36C324.29 260.36 324.04 260.12 324.04 259.81V253.93Z" fill="white"/>
<path d="M328.11 259.81C328.11 260.11 327.86 260.36 327.57 260.36C327.26 260.36 327.02 260.11 327.02 259.81V254.02C327.02 253.84 327.09 253.66 327.24 253.55C327.49 253.38 327.83 253.43 328 253.67L331.22 258.13V254.02C331.22 253.73 331.46 253.48 331.76 253.48C332.06 253.48 332.31 253.73 332.31 254.02V259.81C332.31 260.11 332.06 260.36 331.76 260.36C331.6 260.36 331.45 260.28 331.35 260.16C331.33 260.14 331.31 260.12 331.3 260.1L328.11 255.67V259.81Z" fill="white"/>
<path d="M384.12 178.02H251.43V189.77H384.12V178.02Z" fill="#EBEBEB"/>
<path d="M256.5 182.91C256.5 182.79 256.59 182.71 256.7 182.71C256.81 182.71 256.9 182.8 256.9 182.91V185.18C256.9 185.89 257.47 186.46 258.17 186.47C258.88 186.47 259.46 185.89 259.46 185.18V182.91C259.46 182.79 259.56 182.71 259.66 182.71C259.78 182.71 259.87 182.8 259.87 182.91V185.18C259.87 186.11 259.11 186.88 258.16 186.88C257.21 186.88 256.48 186.12 256.48 185.18V182.91H256.5Z" fill="#A6A6A6"/>
<path d="M261.51 186.01C261.58 185.92 261.71 185.91 261.8 185.98C262.09 186.19 262.55 186.46 263.08 186.46C263.4 186.46 263.68 186.36 263.87 186.21C264.07 186.07 264.18 185.89 264.18 185.7C264.18 185.5 264.09 185.37 263.88 185.19C263.7 185.05 263.4 184.95 263 184.88H262.98C262.61 184.8 262.27 184.72 262.04 184.55C261.78 184.4 261.59 184.13 261.59 183.8C261.59 183.47 261.78 183.18 262.04 182.98C262.29 182.81 262.63 182.7 263.06 182.7C263.6 182.7 263.98 182.95 264.3 183.15C264.39 183.22 264.42 183.35 264.36 183.44C264.3 183.53 264.17 183.56 264.08 183.5C263.77 183.3 263.47 183.08 263.06 183.08C262.72 183.08 262.45 183.17 262.27 183.32C262.1 183.46 262.01 183.63 262.01 183.8C262.01 183.97 262.09 184.09 262.25 184.22C262.44 184.35 262.72 184.45 263.1 184.51H263.12C263.52 184.57 263.84 184.69 264.13 184.85C264.4 185.03 264.6 185.35 264.6 185.7C264.6 186.05 264.41 186.33 264.12 186.54C263.83 186.75 263.49 186.87 263.08 186.87C262.41 186.87 261.88 186.55 261.54 186.28C261.45 186.2 261.45 186.09 261.51 186.01Z" fill="#A6A6A6"/>
<path d="M265.68 184.81C265.68 183.65 266.58 182.72 267.7 182.72C268.82 182.72 269.62 183.57 269.7 184.66V184.69C269.7 184.8 269.61 184.88 269.5 184.88H266.09C266.13 185.79 266.85 186.48 267.7 186.48C268.25 186.48 268.76 186.19 269.04 185.72C269.1 185.62 269.23 185.6 269.31 185.65C269.4 185.72 269.44 185.84 269.38 185.94C269.02 186.51 268.4 186.88 267.7 186.88C266.58 186.88 265.68 185.95 265.68 184.81ZM266.11 184.47H269.26C269.12 183.69 268.46 183.12 267.7 183.12C266.94 183.12 266.26 183.68 266.11 184.47Z" fill="#A6A6A6"/>
<path d="M270.97 182.93C270.97 182.81 271.06 182.73 271.18 182.73C271.28 182.73 271.38 182.81 271.38 182.93V183.85C271.38 183.85 271.41 183.78 271.44 183.75C271.75 183.26 272.31 182.73 273.11 182.73C273.22 182.73 273.31 182.81 273.31 182.93C273.31 183.04 273.22 183.13 273.11 183.13C272.57 183.13 272.19 183.44 271.9 183.81C271.62 184.18 271.46 184.61 271.4 184.78C271.38 184.81 271.38 184.83 271.38 184.85V186.68C271.38 186.8 271.29 186.88 271.18 186.88C271.06 186.88 270.97 186.79 270.97 186.68V182.93Z" fill="#A6A6A6"/>
<path d="M277.68 184.41C277.68 183.71 277.11 183.13 276.4 183.13C275.69 183.13 275.13 183.71 275.11 184.41V186.7C275.11 186.7 275.09 186.77 275.07 186.79C275.04 186.84 274.98 186.87 274.92 186.87H274.87C274.81 186.85 274.76 186.81 274.73 186.76C274.73 186.76 274.73 186.74 274.73 186.73C274.73 186.72 274.73 186.71 274.73 186.71V182.91C274.73 182.8 274.81 182.71 274.93 182.71C275.04 182.71 275.13 182.8 275.13 182.91V183.31C275.44 182.94 275.9 182.71 276.42 182.71C277.35 182.71 278.11 183.47 278.11 184.4V186.66C278.11 186.78 278.02 186.86 277.91 186.86C277.8 186.86 277.71 186.77 277.71 186.66V184.4L277.68 184.41Z" fill="#A6A6A6"/>
<path d="M283.41 182.92V186.67C283.41 186.78 283.32 186.87 283.21 186.87C283.1 186.87 283.01 186.78 283.01 186.67V186.05C282.65 186.54 282.08 186.87 281.45 186.87C280.35 186.87 279.48 185.93 279.48 184.79C279.48 183.65 280.36 182.71 281.45 182.71C282.09 182.71 282.66 183.03 283.01 183.53V182.92C283.01 182.8 283.1 182.72 283.21 182.72C283.32 182.72 283.41 182.81 283.41 182.92ZM283 184.8C283 183.87 282.3 183.12 281.44 183.12C280.58 183.12 279.88 183.87 279.88 184.8C279.88 185.73 280.59 186.47 281.44 186.47C282.29 186.47 283 185.73 283 184.8Z" fill="#A6A6A6"/>
<path d="M291.13 184.41C291.11 183.71 290.55 183.12 289.84 183.12C289.13 183.12 288.56 183.71 288.56 184.41V186.7V186.72V186.74C288.54 186.79 288.5 186.83 288.46 186.85C288.43 186.87 288.39 186.88 288.36 186.88H288.32H288.3C288.28 186.88 288.27 186.86 288.25 186.85C288.25 186.85 288.23 186.85 288.22 186.83L288.2 186.8C288.2 186.8 288.2 186.78 288.18 186.78C288.18 186.78 288.18 186.773 288.18 186.76C288.18 186.76 288.18 186.76 288.18 186.74C288.18 186.74 288.18 186.72 288.18 186.71V184.4C288.18 183.7 287.61 183.11 286.9 183.11C286.19 183.11 285.62 183.7 285.62 184.4V186.67C285.62 186.74 285.59 186.8 285.53 186.83C285.53 186.83 285.5 186.86 285.48 186.86C285.48 186.86 285.46 186.86 285.45 186.86H285.4C285.32 186.86 285.26 186.78 285.23 186.71V182.9C285.23 182.79 285.32 182.7 285.43 182.7C285.55 182.7 285.63 182.78 285.63 182.9V183.3C285.94 182.93 286.39 182.71 286.91 182.71C287.56 182.71 288.11 183.07 288.4 183.59C288.7 183.06 289.26 182.71 289.89 182.71C290.82 182.71 291.58 183.47 291.58 184.4V186.67C291.58 186.77 291.49 186.87 291.38 186.87C291.27 186.87 291.19 186.78 291.19 186.67V184.4L291.13 184.41Z" fill="#A6A6A6"/>
<path d="M292.96 184.81C292.96 183.65 293.86 182.72 294.98 182.72C296.1 182.72 296.9 183.57 296.98 184.66V184.69C296.98 184.8 296.89 184.88 296.78 184.88H293.37C293.41 185.79 294.13 186.48 294.98 186.48C295.53 186.48 296.04 186.19 296.32 185.72C296.38 185.62 296.51 185.6 296.59 185.65C296.68 185.72 296.72 185.84 296.66 185.94C296.3 186.51 295.68 186.88 294.98 186.88C293.86 186.88 292.96 185.95 292.96 184.81ZM293.39 184.47H296.54C296.4 183.69 295.74 183.12 294.98 183.12C294.22 183.12 293.54 183.68 293.39 184.47Z" fill="#A6A6A6"/>
<path d="M301.08 180.92C302.73 180.92 304.05 182.25 304.05 183.89C304.05 184.39 303.94 184.85 303.74 185.25C303.72 185.28 303.47 185.75 302.97 185.9C302.91 185.92 302.85 185.92 302.8 185.92C302.57 185.92 302.41 185.82 302.32 185.69C302.23 185.56 302.18 185.43 302.18 185.28V184.99C301.9 185.3 301.53 185.5 301.08 185.5C300.24 185.5 299.56 184.77 299.56 183.89C299.56 183.01 300.24 182.3 301.08 182.3C301.92 182.3 302.58 183.02 302.58 183.89V185.25C302.58 185.3 302.61 185.39 302.63 185.44C302.66 185.47 302.7 185.5 302.78 185.5H302.85C303.11 185.44 303.31 185.14 303.34 185.06C303.53 184.72 303.62 184.32 303.62 183.9C303.62 182.5 302.47 181.34 301.06 181.34C299.65 181.34 298.49 182.5 298.49 183.9C298.49 185.3 299.65 186.47 301.06 186.47C301.28 186.47 301.48 186.47 301.7 186.4C301.81 186.37 301.93 186.43 301.94 186.54C301.98 186.65 301.91 186.77 301.8 186.79C301.57 186.85 301.32 186.88 301.07 186.88C299.41 186.88 298.09 185.55 298.09 183.9C298.09 182.25 299.41 180.93 301.07 180.93L301.08 180.92ZM301.08 185.06C301.67 185.06 302.17 184.55 302.17 183.9C302.17 183.25 301.67 182.73 301.08 182.73C300.49 182.73 300 183.26 300 183.9C300 184.54 300.48 185.06 301.08 185.06Z" fill="#A6A6A6"/>
<path d="M312.72 184.41C312.7 183.71 312.14 183.12 311.43 183.12C310.72 183.12 310.15 183.71 310.15 184.41V186.7V186.72V186.74C310.13 186.79 310.09 186.83 310.05 186.85C310.02 186.87 309.98 186.88 309.95 186.88H309.91H309.89C309.87 186.88 309.86 186.86 309.84 186.85C309.84 186.85 309.82 186.85 309.81 186.83L309.79 186.8C309.79 186.8 309.79 186.78 309.77 186.78C309.77 186.78 309.77 186.773 309.77 186.76C309.77 186.76 309.77 186.76 309.77 186.74C309.77 186.74 309.77 186.72 309.77 186.71V184.4C309.77 183.7 309.2 183.11 308.49 183.11C307.78 183.11 307.21 183.7 307.21 184.4V186.67C307.21 186.74 307.18 186.8 307.12 186.83C307.12 186.83 307.09 186.86 307.07 186.86C307.07 186.86 307.05 186.86 307.04 186.86H306.99C306.91 186.86 306.85 186.78 306.82 186.71V182.9C306.82 182.79 306.91 182.7 307.02 182.7C307.14 182.7 307.22 182.78 307.22 182.9V183.3C307.53 182.93 307.98 182.71 308.5 182.71C309.15 182.71 309.7 183.07 309.99 183.59C310.29 183.06 310.85 182.71 311.49 182.71C312.42 182.71 313.18 183.47 313.18 184.4V186.67C313.18 186.77 313.1 186.87 312.98 186.87C312.87 186.87 312.79 186.78 312.79 186.67V184.4L312.72 184.41Z" fill="#A6A6A6"/>
<path d="M318.34 182.92V186.67C318.34 186.78 318.25 186.87 318.14 186.87C318.03 186.87 317.94 186.78 317.94 186.67V186.05C317.58 186.54 317.01 186.87 316.38 186.87C315.28 186.87 314.41 185.93 314.41 184.79C314.41 183.65 315.28 182.71 316.38 182.71C317.02 182.71 317.59 183.03 317.94 183.53V182.92C317.94 182.8 318.03 182.72 318.14 182.72C318.25 182.72 318.34 182.81 318.34 182.92ZM317.93 184.8C317.93 183.87 317.22 183.12 316.37 183.12C315.52 183.12 314.81 183.87 314.81 184.8C314.81 185.73 315.52 186.47 316.37 186.47C317.22 186.47 317.93 185.73 317.93 184.8Z" fill="#A6A6A6"/>
<path d="M320.12 181.56C320.12 181.45 320.21 181.36 320.32 181.36C320.44 181.36 320.53 181.45 320.53 181.56V181.76C320.53 181.88 320.44 181.98 320.32 181.98C320.21 181.98 320.12 181.88 320.12 181.76V181.56ZM320.12 182.92C320.12 182.8 320.21 182.72 320.32 182.72C320.44 182.72 320.53 182.81 320.53 182.92V186.67C320.53 186.78 320.44 186.87 320.32 186.87C320.21 186.87 320.12 186.78 320.12 186.67V182.92Z" fill="#A6A6A6"/>
<path d="M322.38 181.14C322.38 181.03 322.47 180.94 322.58 180.94C322.7 180.94 322.79 181.03 322.79 181.14V186.68C322.79 186.79 322.7 186.88 322.58 186.88C322.47 186.88 322.38 186.79 322.38 186.68V181.14Z" fill="#A6A6A6"/>
<path d="M324.77 186.03C325.01 186.03 325.19 186.22 325.19 186.45C325.19 186.68 325 186.87 324.77 186.87C324.54 186.87 324.34 186.68 324.34 186.45C324.34 186.22 324.53 186.03 324.77 186.03Z" fill="#A6A6A6"/>
<path d="M325.92 184.79C325.92 183.63 326.87 182.72 328.06 182.72C328.55 182.72 329.02 182.89 329.38 183.18C329.47 183.24 329.48 183.37 329.41 183.46C329.34 183.54 329.22 183.56 329.13 183.49C328.83 183.25 328.46 183.12 328.06 183.12C327.09 183.12 326.33 183.88 326.33 184.79C326.33 185.7 327.09 186.47 328.06 186.47C328.46 186.47 328.83 186.33 329.13 186.1C329.22 186.03 329.34 186.06 329.41 186.13C329.49 186.22 329.47 186.35 329.37 186.43C329.02 186.7 328.55 186.87 328.06 186.87C326.87 186.87 325.92 185.95 325.92 184.78V184.79Z" fill="#A6A6A6"/>
<path d="M332.72 182.72C333.82 182.72 334.69 183.67 334.69 184.8C334.69 185.93 333.82 186.88 332.72 186.88C331.62 186.88 330.75 185.93 330.75 184.8C330.75 183.67 331.63 182.72 332.72 182.72ZM332.72 186.47C333.57 186.47 334.28 185.72 334.28 184.8C334.28 183.88 333.57 183.12 332.72 183.12C331.87 183.12 331.16 183.88 331.16 184.8C331.16 185.72 331.87 186.47 332.72 186.47Z" fill="#A6A6A6"/>
<path d="M342.21 184.41C342.19 183.71 341.63 183.12 340.92 183.12C340.21 183.12 339.64 183.71 339.64 184.41V186.7V186.72V186.74C339.62 186.79 339.58 186.83 339.54 186.85C339.51 186.87 339.47 186.88 339.44 186.88H339.4H339.38C339.36 186.88 339.35 186.86 339.33 186.85C339.33 186.85 339.31 186.85 339.3 186.83L339.28 186.8C339.28 186.8 339.28 186.78 339.26 186.78C339.26 186.78 339.26 186.773 339.26 186.76C339.26 186.76 339.26 186.76 339.26 186.74C339.26 186.74 339.26 186.72 339.26 186.71V184.4C339.26 183.7 338.69 183.11 337.98 183.11C337.27 183.11 336.7 183.7 336.7 184.4V186.67C336.7 186.74 336.67 186.8 336.61 186.83C336.61 186.83 336.58 186.86 336.56 186.86C336.56 186.86 336.54 186.86 336.53 186.86H336.48C336.4 186.86 336.34 186.78 336.31 186.71V182.9C336.31 182.79 336.4 182.7 336.51 182.7C336.63 182.7 336.71 182.78 336.71 182.9V183.3C337.02 182.93 337.47 182.71 337.99 182.71C338.64 182.71 339.19 183.07 339.48 183.59C339.78 183.06 340.34 182.71 340.98 182.71C341.91 182.71 342.67 183.47 342.67 184.4V186.67C342.67 186.77 342.59 186.87 342.47 186.87C342.36 186.87 342.27 186.78 342.27 186.67V184.4L342.21 184.41Z" fill="#A6A6A6"/>
<path d="M384.12 206.39H251.43V218.14H384.12V206.39Z" fill="#EBEBEB"/>
<path d="M257.52 212.44L256.75 212.97C256.7 213 256.66 213.02 256.61 213.02C256.52 213.02 256.44 212.93 256.44 212.84C256.44 212.76 256.5 212.7 256.56 212.68L257.43 212.26L256.56 211.84C256.49 211.81 256.44 211.76 256.44 211.68C256.44 211.59 256.52 211.51 256.61 211.5C256.67 211.5 256.69 211.52 256.75 211.55L257.52 212.08L257.45 211.15C257.45 211.05 257.52 210.96 257.62 210.96C257.72 210.96 257.8 211.05 257.79 211.15L257.72 212.08L258.49 211.55C258.54 211.52 258.58 211.5 258.63 211.5C258.72 211.5 258.8 211.59 258.8 211.68C258.8 211.77 258.74 211.82 258.68 211.84L257.8 212.26L258.68 212.68C258.74 212.71 258.8 212.75 258.8 212.84C258.8 212.93 258.72 213.02 258.63 213.02C258.58 213.02 258.54 213 258.49 212.97L257.72 212.44L257.79 213.37C257.79 213.47 257.72 213.56 257.62 213.56C257.52 213.56 257.44 213.47 257.45 213.37L257.52 212.44Z" fill="#A6A6A6"/>
<path d="M261.17 212.44L260.4 212.97C260.35 213 260.32 213.02 260.26 213.02C260.17 213.02 260.09 212.93 260.09 212.84C260.09 212.76 260.15 212.7 260.21 212.68L261.08 212.26L260.21 211.84C260.14 211.81 260.09 211.76 260.09 211.68C260.09 211.59 260.17 211.51 260.26 211.5C260.32 211.5 260.35 211.52 260.4 211.55L261.17 212.08L261.1 211.15C261.1 211.05 261.17 210.96 261.27 210.96C261.37 210.96 261.45 211.05 261.44 211.15L261.37 212.08L262.14 211.55C262.19 211.52 262.23 211.5 262.28 211.5C262.37 211.5 262.45 211.59 262.45 211.68C262.45 211.77 262.39 211.82 262.33 211.84L261.45 212.26L262.33 212.68C262.39 212.71 262.45 212.75 262.45 212.84C262.45 212.93 262.37 213.02 262.28 213.02C262.23 213.02 262.2 213 262.14 212.97L261.37 212.44L261.44 213.37C261.44 213.47 261.37 213.56 261.27 213.56C261.17 213.56 261.09 213.47 261.1 213.37L261.17 212.44Z" fill="#A6A6A6"/>
<path d="M264.83 212.44L264.06 212.97C264.01 213 263.97 213.02 263.92 213.02C263.83 213.02 263.75 212.93 263.75 212.84C263.75 212.76 263.81 212.7 263.87 212.68L264.74 212.26L263.87 211.84C263.8 211.81 263.75 211.76 263.75 211.68C263.75 211.59 263.83 211.51 263.92 211.5C263.98 211.5 264.01 211.52 264.06 211.55L264.83 212.08L264.76 211.15C264.76 211.05 264.83 210.96 264.93 210.96C265.03 210.96 265.11 211.05 265.1 211.15L265.03 212.08L265.8 211.55C265.85 211.52 265.88 211.5 265.94 211.5C266.03 211.5 266.11 211.59 266.11 211.68C266.11 211.77 266.05 211.82 265.99 211.84L265.11 212.26L265.99 212.68C266.05 212.71 266.11 212.75 266.11 212.84C266.11 212.93 266.03 213.02 265.94 213.02C265.89 213.02 265.86 213 265.8 212.97L265.03 212.44L265.1 213.37C265.1 213.47 265.03 213.56 264.93 213.56C264.83 213.56 264.75 213.47 264.76 213.37L264.83 212.44Z" fill="#A6A6A6"/>
<path d="M268.48 212.44L267.71 212.97C267.66 213 267.62 213.02 267.57 213.02C267.48 213.02 267.4 212.93 267.4 212.84C267.4 212.76 267.46 212.7 267.52 212.68L268.39 212.26L267.52 211.84C267.45 211.81 267.4 211.76 267.4 211.68C267.4 211.59 267.48 211.51 267.57 211.5C267.63 211.5 267.66 211.52 267.71 211.55L268.48 212.08L268.41 211.15C268.41 211.05 268.48 210.96 268.58 210.96C268.68 210.96 268.76 211.05 268.75 211.15L268.68 212.08L269.45 211.55C269.5 211.52 269.54 211.5 269.59 211.5C269.68 211.5 269.76 211.59 269.76 211.68C269.76 211.77 269.7 211.82 269.64 211.84L268.76 212.26L269.64 212.68C269.7 212.71 269.76 212.75 269.76 212.84C269.76 212.93 269.68 213.02 269.59 213.02C269.54 213.02 269.51 213 269.45 212.97L268.68 212.44L268.75 213.37C268.75 213.47 268.68 213.56 268.58 213.56C268.48 213.56 268.4 213.47 268.41 213.37L268.48 212.44Z" fill="#A6A6A6"/>
<path d="M272.14 212.44L271.37 212.97C271.32 213 271.28 213.02 271.23 213.02C271.14 213.02 271.06 212.93 271.06 212.84C271.06 212.76 271.12 212.7 271.18 212.68L272.05 212.26L271.18 211.84C271.11 211.81 271.06 211.76 271.06 211.68C271.06 211.59 271.14 211.51 271.23 211.5C271.29 211.5 271.31 211.52 271.37 211.55L272.14 212.08L272.07 211.15C272.07 211.05 272.14 210.96 272.24 210.96C272.34 210.96 272.42 211.05 272.41 211.15L272.34 212.08L273.11 211.55C273.16 211.52 273.19 211.5 273.25 211.5C273.34 211.5 273.42 211.59 273.42 211.68C273.42 211.77 273.36 211.82 273.3 211.84L272.42 212.26L273.3 212.68C273.36 212.71 273.42 212.75 273.42 212.84C273.42 212.93 273.34 213.02 273.25 213.02C273.2 213.02 273.16 213 273.11 212.97L272.34 212.44L272.41 213.37C272.41 213.47 272.34 213.56 272.24 213.56C272.14 213.56 272.06 213.47 272.07 213.37L272.14 212.44Z" fill="#A6A6A6"/>
<path d="M275.79 212.44L275.02 212.97C274.97 213 274.93 213.02 274.88 213.02C274.79 213.02 274.71 212.93 274.71 212.84C274.71 212.76 274.77 212.7 274.83 212.68L275.7 212.26L274.83 211.84C274.76 211.81 274.71 211.76 274.71 211.68C274.71 211.59 274.79 211.51 274.88 211.5C274.94 211.5 274.97 211.52 275.02 211.55L275.79 212.08L275.72 211.15C275.72 211.05 275.79 210.96 275.89 210.96C275.99 210.96 276.07 211.05 276.06 211.15L275.99 212.08L276.76 211.55C276.81 211.52 276.85 211.5 276.9 211.5C276.99 211.5 277.07 211.59 277.07 211.68C277.07 211.77 277.01 211.82 276.95 211.84L276.07 212.26L276.95 212.68C277.01 212.71 277.07 212.75 277.07 212.84C277.07 212.93 276.99 213.02 276.9 213.02C276.85 213.02 276.82 213 276.76 212.97L275.99 212.44L276.06 213.37C276.06 213.47 275.99 213.56 275.89 213.56C275.79 213.56 275.71 213.47 275.72 213.37L275.79 212.44Z" fill="#A6A6A6"/>
<path d="M279.45 212.44L278.68 212.97C278.63 213 278.59 213.02 278.54 213.02C278.45 213.02 278.37 212.93 278.37 212.84C278.37 212.76 278.43 212.7 278.49 212.68L279.36 212.26L278.49 211.84C278.42 211.81 278.37 211.76 278.37 211.68C278.37 211.59 278.45 211.51 278.54 211.5C278.6 211.5 278.63 211.52 278.68 211.55L279.45 212.08L279.38 211.15C279.38 211.05 279.45 210.96 279.55 210.96C279.65 210.96 279.73 211.05 279.72 211.15L279.65 212.08L280.42 211.55C280.47 211.52 280.5 211.5 280.56 211.5C280.65 211.5 280.73 211.59 280.73 211.68C280.73 211.77 280.67 211.82 280.61 211.84L279.73 212.26L280.61 212.68C280.67 212.71 280.73 212.75 280.73 212.84C280.73 212.93 280.65 213.02 280.56 213.02C280.51 213.02 280.48 213 280.42 212.97L279.65 212.44L279.72 213.37C279.72 213.47 279.65 213.56 279.55 213.56C279.45 213.56 279.37 213.47 279.38 213.37L279.45 212.44Z" fill="#A6A6A6"/>
<path d="M283.1 212.44L282.33 212.97C282.28 213 282.24 213.02 282.19 213.02C282.1 213.02 282.02 212.93 282.02 212.84C282.02 212.76 282.08 212.7 282.14 212.68L283.01 212.26L282.14 211.84C282.07 211.81 282.02 211.76 282.02 211.68C282.02 211.59 282.1 211.51 282.19 211.5C282.25 211.5 282.28 211.52 282.33 211.55L283.1 212.08L283.03 211.15C283.03 211.05 283.1 210.96 283.2 210.96C283.3 210.96 283.38 211.05 283.37 211.15L283.3 212.08L284.07 211.55C284.12 211.52 284.16 211.5 284.21 211.5C284.3 211.5 284.38 211.59 284.38 211.68C284.38 211.77 284.32 211.82 284.26 211.84L283.38 212.26L284.26 212.68C284.32 212.71 284.38 212.75 284.38 212.84C284.38 212.93 284.3 213.02 284.21 213.02C284.16 213.02 284.12 213 284.07 212.97L283.3 212.44L283.37 213.37C283.37 213.47 283.3 213.56 283.2 213.56C283.1 213.56 283.02 213.47 283.03 213.37L283.1 212.44Z" fill="#A6A6A6"/>
<path d="M0.5 362.69L53.82 362.45L107.15 362.36L213.79 362.19L320.44 362.36L373.76 362.45L427.08 362.69L373.76 362.94L320.44 363.03L213.79 363.19L107.15 363.03L53.82 362.94L0.5 362.69Z" fill="#263238"/>
<path d="M378.48 304.44C392.82 318.48 395.22 340.19 392.2 359.21C392.12 359.64 391.45 359.52 391.45 359.12C391.45 354.79 391.58 350.5 391.57 346.22C391.49 346.02 391.43 345.84 391.35 345.64C387.61 342.92 384.17 339.85 382.04 335.63C379.65 330.92 378.7 325.61 376.87 320.69C376.7 320.22 377.2 320.36 377.53 320.6C386.25 327.03 389.03 333.95 391.53 343.2C391.41 338.4 391.05 333.6 390.01 328.8C388.13 320.02 384.4 311.32 378.09 304.81C377.85 304.56 378.22 304.18 378.47 304.43L378.48 304.44Z" fill="#263238"/>
<path d="M375.79 306.08C373.32 306.16 371.78 310.11 369.86 311.26C368.84 311.87 367.85 311.83 367.14 310.83C365.24 308.17 367.85 304.89 370.31 303.06C368.55 303.78 367.1 305.05 365.2 305.41C364.05 305.62 363.16 305.2 362.89 304.03C362.06 300.41 366.6 298.79 369.72 298.72C368.21 297.67 363.87 294.81 366.18 293.41C368.51 292 373.6 296.09 375.26 297.43C377.7 299.41 380.61 302.36 380.72 305.46C380.86 309.07 377.71 306.85 375.81 306.09L375.79 306.08Z" fill="#FFC727"/>
<path opacity="0.1" d="M375.79 306.08C373.32 306.16 371.78 310.11 369.86 311.26C368.84 311.87 367.85 311.83 367.14 310.83C365.24 308.17 367.85 304.89 370.31 303.06C368.55 303.78 367.1 305.05 365.2 305.41C364.05 305.62 363.16 305.2 362.89 304.03C362.06 300.41 366.6 298.79 369.72 298.72C368.21 297.67 363.87 294.81 366.18 293.41C368.51 292 373.6 296.09 375.26 297.43C377.7 299.41 380.61 302.36 380.72 305.46C380.86 309.07 377.71 306.85 375.81 306.09L375.79 306.08Z" fill="black"/>
<path d="M376.5 306.69C373.35 305.26 367.29 307.32 366.77 306.13C365.73 303.7 370.57 302.03 373.18 301.71C370.77 301.06 366.16 300.02 366.3 297.7C366.47 294.87 373.37 297.3 376.86 299.98C381.26 303.35 381.23 306.61 380.5 307.26C379.5 308.15 377.01 306.93 376.48 306.69H376.5Z" fill="#FFC727"/>
<path d="M411.13 303.05C396.27 316.53 393.04 338.14 395.34 357.26C395.4 357.69 396.07 357.6 396.09 357.2C396.25 352.87 396.29 348.58 396.46 344.31C396.55 344.12 396.62 343.94 396.7 343.74C400.54 341.16 404.1 338.22 406.39 334.09C408.96 329.48 410.1 324.2 412.12 319.36C412.31 318.9 411.8 319.01 411.46 319.25C402.5 325.34 399.46 332.16 396.61 341.3C396.91 336.51 397.46 331.72 398.67 326.97C400.89 318.27 404.94 309.72 411.49 303.45C411.73 303.21 411.38 302.82 411.13 303.06V303.05Z" fill="#263238"/>
<path d="M413.76 304.79C416.22 304.97 417.62 308.96 419.49 310.19C420.48 310.84 421.47 310.84 422.23 309.87C424.23 307.29 421.75 303.91 419.36 301.98C421.09 302.77 422.5 304.09 424.38 304.52C425.52 304.77 426.43 304.38 426.74 303.23C427.71 299.64 423.23 297.86 420.12 297.66C421.67 296.67 426.11 293.98 423.86 292.48C421.58 290.98 416.34 294.87 414.64 296.15C412.13 298.03 409.11 300.88 408.88 303.96C408.6 307.56 411.84 305.46 413.76 304.78V304.79Z" fill="#FFC727"/>
<path opacity="0.1" d="M413.76 304.79C416.22 304.97 417.62 308.96 419.49 310.19C420.48 310.84 421.47 310.84 422.23 309.87C424.23 307.29 421.75 303.91 419.36 301.98C421.09 302.77 422.5 304.09 424.38 304.52C425.52 304.77 426.43 304.38 426.74 303.23C427.71 299.64 423.23 297.86 420.12 297.66C421.67 296.67 426.11 293.98 423.86 292.48C421.58 290.98 416.34 294.87 414.64 296.15C412.13 298.03 409.11 300.88 408.88 303.96C408.6 307.56 411.84 305.46 413.76 304.78V304.79Z" fill="black"/>
<path d="M413.03 305.37C416.24 304.06 422.21 306.35 422.77 305.18C423.91 302.79 419.13 300.94 416.53 300.52C418.96 299.96 423.61 299.1 423.55 296.77C423.48 293.93 416.5 296.1 412.91 298.65C408.39 301.85 408.29 305.11 408.99 305.79C409.95 306.72 412.49 305.59 413.02 305.38L413.03 305.37Z" fill="#FFC727"/>
<path d="M395.94 338.66C394.84 345.76 393.48 353.11 391.33 359.97C391.12 360.6 390.2 360.44 390.29 359.76C391.27 353.19 393.05 346.74 394.02 340.18C395.01 333.53 395.54 326.8 395.16 320.07C394.53 309 391.53 297.23 384.31 288.57C384.15 288.36 384.49 288.07 384.65 288.27C399.11 305.13 396.81 325.8 396.8 327.65C398.85 320.67 400.96 312.67 408.7 305.56C409.03 305.25 409.29 305.4 409.24 305.92C407.86 318.87 404.26 325.63 396.75 332.55C396.54 334.6 396.27 336.64 395.95 338.66H395.94Z" fill="#263238"/>
<path d="M384.17 290.51C381.57 289.35 377.98 292.67 375.41 292.89C374.05 293.01 373.04 292.48 372.8 291.08C372.16 287.36 376.52 285.28 380 284.61C377.81 284.47 375.66 285.06 373.51 284.48C372.21 284.12 371.5 283.23 371.81 281.89C372.77 277.71 378.3 278.32 381.57 279.82C380.53 277.97 377.47 272.82 380.57 272.52C383.7 272.23 386.92 279.03 387.96 281.26C389.49 284.54 391.02 289.07 389.58 292.34C387.91 296.16 385.75 292.26 384.17 290.52V290.51Z" fill="#FFC727"/>
<path opacity="0.1" d="M384.17 290.51C381.57 289.35 377.98 292.67 375.41 292.89C374.05 293.01 373.04 292.48 372.8 291.08C372.16 287.36 376.52 285.28 380 284.61C377.81 284.47 375.66 285.06 373.51 284.48C372.21 284.12 371.5 283.23 371.81 281.89C372.77 277.71 378.3 278.32 381.57 279.82C380.53 277.97 377.47 272.82 380.57 272.52C383.7 272.23 386.92 279.03 387.96 281.26C389.49 284.54 391.02 289.07 389.58 292.34C387.91 296.16 385.75 292.26 384.17 290.52V290.51Z" fill="black"/>
<path d="M384.61 291.5C382.06 288.43 374.74 287.52 374.8 286.02C374.94 282.97 380.8 283.68 383.67 284.66C381.5 282.77 377.24 279.37 378.56 277.04C380.17 274.19 386.1 280.19 388.37 284.72C391.24 290.43 389.57 293.8 388.49 294.11C387 294.54 385.03 292.01 384.61 291.5Z" fill="#FFC727"/>
<path d="M405.45 342.55L411.83 391.27H373.02C373.82 386.95 381.04 342.49 381.04 342.49L405.45 342.55Z" fill="#FFC727"/>
<path d="M174.11 251.27C174.08 251.78 173.68 252.27 173.15 252.29C171.93 252.25 170.46 252.18 168.82 252.12C166.03 241.67 162.72 233.26 163.48 236.49C164.58 241.16 165.05 247.77 164.57 251.93C162.66 251.84 158.24 251.58 156.03 251.45C154.56 233.42 151.66 219.86 151.49 223.93C150.84 240.36 149.32 245.5 147.59 250.98C126.98 249.76 99.98 247.88 80.49 246.09C79.28 236.08 78.43 225.3 78.01 226C74.77 231.24 73.2 239.18 72.49 245.34C66.29 244.73 61.35 244.12 58.35 243.61C58.35 243.61 57.77 235.24 57.85 232.52C58.01 225.58 59.52 218.6 62.2 212.17C64.99 205.54 69.19 199.87 73.22 194.02C73.25 193.97 73.28 193.92 73.32 193.89C73.32 193.87 73.34 193.87 73.35 193.84C76.11 189.79 78.26 185.87 79.88 181.64C79.9 181.62 79.91 181.59 79.92 181.55C81.05 178.55 81.91 175.41 82.56 171.93C84.74 159.96 92.64 150.24 104.32 148.25C125.58 134.36 148.44 141.08 153.28 157.24C153.74 158.81 154.17 160.61 154.56 162.55V162.61C156.03 169.81 157.03 179.07 158.11 186.26C158.09 186.28 158.11 186.3 158.11 186.3C158.09 186.32 158.1 186.34 158.12 186.38V186.4C158.66 189.83 159.2 192.75 159.81 194.75C163.89 207.91 175.5 216.37 174.1 251.29L174.11 251.27Z" fill="#263238"/>
<path d="M99.03 151.03C91.18 154.13 86.01 159.31 83.92 168C82.7 173.06 81.83 178.04 79.35 182.68C76.79 187.47 73.13 191.23 69.38 194.98C63.43 200.94 59.07 207.03 57.34 215.59C55.58 224.28 54.9 234.69 57 243.19C57.01 243.24 57.08 243.22 57.07 243.17C55.55 234.61 56.7 223.11 59.1 214.56C61.74 205.17 67.79 199.73 74.09 193.05C79.1 187.74 82.58 181.66 84.29 174.4C85.31 170.1 85.72 165.57 87.91 161.65C90.52 156.97 95.02 154.3 99.45 151.97C100.05 151.65 99.61 150.79 99.02 151.02L99.03 151.03Z" fill="#263238"/>
<path d="M170.86 209.54C166.33 202.15 161.48 195.74 159.3 186.93C157.32 178.9 156.58 170.56 154.54 162.53C154.51 162.4 154.32 162.43 154.34 162.57C157.28 176.75 156.67 190.68 164.31 203.15C168.46 209.92 172.66 216.24 175.04 224.09C177.54 232.34 178.1 240.72 177.4 249.43C177.38 249.73 177.77 249.76 177.82 249.47C180.63 235.55 177.96 221.15 170.85 209.54H170.86Z" fill="#263238"/>
<path d="M225.99 189.13L198.2 241.46C197.2 242.95 197.7 244.48 199.3 244.88L228.09 251.97C229.7 252.37 231.82 251.48 232.81 249.99L260.6 197.66C261.6 196.17 261.1 194.64 259.5 194.24L230.71 187.15C229.1 186.75 226.98 187.64 225.98 189.13H225.99Z" fill="#37474F"/>
<path d="M229.41 189.94L201.62 242.27C200.62 243.76 201.12 245.29 202.72 245.69L231.51 252.78C233.12 253.18 235.24 252.29 236.23 250.8L264.02 198.47C265.02 196.98 264.52 195.45 262.92 195.05L234.13 187.96C232.52 187.56 230.41 188.45 229.4 189.94H229.41Z" fill="#455A64"/>
<path d="M236.68 194.43C236.32 195.77 234.93 196.57 233.59 196.21C232.25 195.85 231.45 194.47 231.81 193.12C232.17 191.78 233.55 190.98 234.9 191.34C236.24 191.7 237.04 193.09 236.68 194.43Z" fill="#263238"/>
<path d="M108.37 261.38C120.36 298.99 151.69 349.9 167.11 352.12C174.45 353.18 187.35 356.66 198.11 349.47C221.58 333.79 244.98 302.45 252.24 284.22C254.96 277.39 219.36 253.97 213.44 259.15C199.57 271.26 182.01 296.28 179.89 295.84C172.06 294.2 144.5 264.39 125.29 243.42C101.97 217.96 103.59 246.38 108.37 261.37V261.38Z" fill="#AD6359"/>
<path d="M260.79 251.28C260.82 236.11 258.5 232.22 265.32 219.43C269.8 211.04 266.36 204.58 258.18 210.14C244.8 219.23 240.66 238.79 241.17 245.99L260.79 251.28Z" fill="#AD6359"/>
<path d="M247.45 293.01C247.45 293.01 258.88 274.79 260.51 258.63C261.64 247.46 261.38 222.87 234.36 203.03C227.95 198.32 215.48 196.16 223.16 207.65C228.61 215.81 234.53 219.34 236.84 224.66C236.84 224.66 220.65 223.79 216.19 230.4C214.19 233.35 208.94 241.53 205.75 248.49C205.75 248.49 207.08 249.59 208.96 250.75C208.96 250.75 204.97 257.06 207.58 268.13L247.45 293.02V293.01Z" fill="#AD6359"/>
<path d="M259.88 247.79C256.47 242.99 249.08 232.94 240.18 226.82C230.29 220.02 209.4 209.59 204.45 216.94C200.83 222.33 208.45 227.02 208.45 227.02C208.45 227.02 198.91 224.53 196.7 230.12C194.69 235.21 200.8 238.48 200.8 238.48C200.8 238.48 194.75 237.96 193.76 243.24C192.56 249.59 205.44 249.63 209.78 257.1C210.76 258.78 259.88 247.79 259.88 247.79Z" fill="#AD6359"/>
<path d="M234.74 238.46C230.8 234.47 219.51 227.71 208.68 226.9C208.43 226.88 208.29 227.06 208.51 227.12C220.25 230.55 230.48 235.99 234.68 238.55C234.74 238.58 234.79 238.5 234.74 238.46Z" fill="#263238"/>
<path d="M227.58 248.25C223.82 245.16 211.88 238.71 200.88 238.26C200.63 238.26 200.5 238.44 200.72 238.49C213.13 241.56 223.18 246.03 227.52 248.34C227.58 248.37 227.63 248.28 227.58 248.24V248.25Z" fill="#263238"/>
<path d="M125.22 309.44L155.79 271.16C155.79 271.16 131.46 244.33 115.91 233.21C107.2 226.98 102.24 233.66 103.47 243.26C107.78 276.86 125.22 309.45 125.22 309.45V309.44Z" fill="#FFC727"/>
<path d="M125.22 309.44L155.79 271.16C155.79 271.16 131.46 244.33 115.91 233.21C107.2 226.98 102.24 233.66 103.47 243.26C107.78 276.86 125.22 309.45 125.22 309.45V309.44Z" fill="#FFC727"/>
<path d="M146.06 262.56C144.58 262.56 143.36 263.78 143.36 265.26C143.36 266.74 144.58 267.93 146.06 267.93C147.54 267.93 148.73 266.73 148.73 265.26C148.73 263.79 147.53 262.56 146.06 262.56ZM146.06 267.47C144.82 267.47 143.83 266.48 143.83 265.26C143.83 264.04 144.82 263.03 146.06 263.03C147.3 263.03 148.27 264.02 148.27 265.26C148.27 266.5 147.28 267.47 146.06 267.47ZM121.35 270.81C119.88 270.81 118.68 272.01 118.68 273.49C118.68 274.97 119.88 276.16 121.35 276.16C122.82 276.16 124.03 274.96 124.03 273.49C124.03 272.02 122.83 270.81 121.35 270.81ZM121.35 275.7C120.14 275.7 119.14 274.72 119.14 273.49C119.14 272.26 120.14 271.27 121.35 271.27C122.56 271.27 123.57 272.27 123.57 273.49C123.57 274.71 122.57 275.7 121.35 275.7ZM123.3 249.38C121.82 249.38 120.61 250.58 120.61 252.05C120.61 253.52 121.82 254.75 123.3 254.75C124.78 254.75 125.98 253.55 125.98 252.05C125.98 250.55 124.78 249.38 123.3 249.38ZM123.3 254.29C122.06 254.29 121.07 253.29 121.07 252.05C121.07 250.81 122.06 249.84 123.3 249.84C124.54 249.84 125.51 250.84 125.51 252.05C125.51 253.26 124.52 254.29 123.3 254.29ZM103.41 238.23C103.39 238.38 103.38 238.53 103.36 238.69C104.26 238.96 104.92 239.81 104.92 240.82C104.92 241.83 104.3 242.61 103.43 242.91C103.43 243.02 103.46 243.14 103.47 243.25C103.47 243.29 103.47 243.33 103.49 243.37C104.58 243.04 105.38 242.03 105.38 240.82C105.38 239.61 104.54 238.54 103.41 238.23ZM140.16 290.73C140.07 289.33 138.9 288.23 137.48 288.23C136.06 288.23 134.8 289.43 134.8 290.91C134.8 292.39 136 293.6 137.48 293.6C137.62 293.6 137.76 293.59 137.89 293.57L138.4 292.94C138.12 293.07 137.81 293.14 137.48 293.14C136.26 293.14 135.27 292.14 135.27 290.91C135.27 289.68 136.26 288.69 137.48 288.69C138.7 288.69 139.71 289.69 139.71 290.91C139.71 291.06 139.69 291.21 139.66 291.36L140.16 290.73Z" fill="white"/>
<path opacity="0.1" d="M152.29 275.52L125.23 309.45C125.23 309.45 107.79 276.86 103.47 243.26C102.62 236.66 104.71 231.45 108.91 230.86L152.28 275.52H152.29Z" fill="black"/>
<path d="M148.69 267.68C143.5 273.18 129.85 288.51 122.29 299.63C122.24 299.7 122.48 299.9 122.53 299.84C130.22 291.54 144.34 273.91 149.04 267.98C149.13 267.87 148.79 267.58 148.69 267.68Z" fill="#263238"/>
<path d="M14.02 363.29L145.85 362.98L138.56 317.65C138.56 317.65 148.98 305 147.01 291.27C144.85 276.23 117.73 238.12 115.45 235.97C106.28 227.36 96.56 225.81 87.22 228.92H87.2C44.1 256.02 14.01 363.29 14.01 363.29H14.02Z" fill="#FFC727"/>
<path d="M143.07 345.7C142.66 346.19 142.05 346.5 141.37 346.5C140.14 346.5 139.14 345.5 139.14 344.29C139.14 343.08 140.14 342.05 141.37 342.05C141.8 342.05 142.2 342.17 142.54 342.39L142.45 341.82C142.12 341.67 141.76 341.59 141.37 341.59C139.9 341.59 138.68 342.81 138.68 344.29C138.68 345.77 139.9 346.96 141.37 346.96C142.06 346.96 142.68 346.7 143.16 346.28L143.07 345.7ZM116.46 331.85C114.99 331.85 113.79 333.07 113.79 334.54C113.79 336.01 114.99 337.22 116.46 337.22C117.93 337.22 119.14 336.02 119.14 334.54C119.14 333.06 117.94 331.85 116.46 331.85ZM116.46 336.76C115.25 336.76 114.25 335.76 114.25 334.54C114.25 333.32 115.25 332.31 116.46 332.31C117.67 332.31 118.68 333.31 118.68 334.54C118.68 335.77 117.68 336.76 116.46 336.76ZM137.48 288.23C136 288.23 134.8 289.43 134.8 290.91C134.8 292.39 136 293.6 137.48 293.6C138.96 293.6 140.17 292.4 140.17 290.91C140.17 289.42 138.96 288.23 137.48 288.23ZM137.48 293.14C136.26 293.14 135.27 292.14 135.27 290.91C135.27 289.68 136.26 288.69 137.48 288.69C138.7 288.69 139.71 289.69 139.71 290.91C139.71 292.13 138.72 293.14 137.48 293.14ZM40.84 356.1C39.34 356.1 38.14 357.32 38.14 358.8C38.14 360.28 39.34 361.47 40.84 361.47C42.34 361.47 43.51 360.27 43.51 358.8C43.51 357.33 42.32 356.1 40.84 356.1ZM40.84 361.01C39.6 361.01 38.61 360.02 38.61 358.8C38.61 357.58 39.6 356.57 40.84 356.57C42.08 356.57 43.05 357.56 43.05 358.8C43.05 360.04 42.06 361.01 40.84 361.01ZM68.16 347.28C66.66 347.28 65.46 348.49 65.46 349.97C65.46 351.45 66.66 352.65 68.16 352.65C69.66 352.65 70.83 351.45 70.83 349.97C70.83 348.49 69.63 347.28 68.16 347.28ZM68.16 352.18C66.92 352.18 65.92 351.19 65.92 349.97C65.92 348.75 66.92 347.74 68.16 347.74C69.4 347.74 70.37 348.73 70.37 349.97C70.37 351.21 69.38 352.18 68.16 352.18ZM47.51 279.41C47.38 279.41 47.25 279.42 47.13 279.44C47.03 279.62 46.94 279.79 46.85 279.97C47.06 279.91 47.28 279.87 47.51 279.87C48.73 279.87 49.72 280.87 49.72 282.08C49.72 283.29 48.73 284.3 47.51 284.3C46.53 284.3 45.69 283.65 45.41 282.76C45.31 282.95 45.22 283.13 45.13 283.31C45.57 284.17 46.47 284.76 47.51 284.76C48.99 284.76 50.19 283.56 50.19 282.08C50.19 280.6 48.99 279.41 47.51 279.41ZM55.06 299.95C53.58 299.95 52.38 301.15 52.38 302.62C52.38 304.09 53.58 305.3 55.06 305.3C56.54 305.3 57.73 304.1 57.73 302.62C57.73 301.14 56.53 299.95 55.06 299.95ZM55.06 304.84C53.84 304.84 52.84 303.84 52.84 302.62C52.84 301.4 53.84 300.41 55.06 300.41C56.28 300.41 57.27 301.41 57.27 302.62C57.27 303.83 56.27 304.84 55.06 304.84ZM77.13 244.14C75.66 244.14 74.46 245.34 74.46 246.82C74.46 248.3 75.66 249.51 77.13 249.51C78.6 249.51 79.83 248.29 79.83 246.82C79.83 245.35 78.61 244.14 77.13 244.14ZM77.13 249.05C75.92 249.05 74.92 248.05 74.92 246.82C74.92 245.59 75.92 244.6 77.13 244.6C78.34 244.6 79.37 245.6 79.37 246.82C79.37 248.04 78.37 249.05 77.13 249.05ZM79.82 290.68C78.34 290.68 77.14 291.88 77.14 293.36C77.14 294.84 78.34 296.05 79.82 296.05C81.3 296.05 82.51 294.84 82.51 293.36C82.51 291.88 81.31 290.68 79.82 290.68ZM79.82 295.59C78.6 295.59 77.6 294.6 77.6 293.36C77.6 292.12 78.6 291.15 79.82 291.15C81.04 291.15 82.05 292.14 82.05 293.36C82.05 294.58 81.06 295.59 79.82 295.59ZM102.71 238.13C101.23 238.13 100.03 239.34 100.03 240.82C100.03 242.3 101.23 243.49 102.71 243.49C104.19 243.49 105.38 242.3 105.38 240.82C105.38 239.34 104.18 238.13 102.71 238.13ZM102.71 243.03C101.49 243.03 100.49 242.04 100.49 240.82C100.49 239.6 101.49 238.59 102.71 238.59C103.93 238.59 104.92 239.58 104.92 240.82C104.92 242.06 103.93 243.03 102.71 243.03ZM123.3 249.38C121.82 249.38 120.61 250.58 120.61 252.05C120.61 253.52 121.82 254.75 123.3 254.75C124.78 254.75 125.98 253.55 125.98 252.05C125.98 250.55 124.78 249.38 123.3 249.38ZM123.3 254.29C122.06 254.29 121.07 253.29 121.07 252.05C121.07 250.81 122.06 249.84 123.3 249.84C124.54 249.84 125.51 250.84 125.51 252.05C125.51 253.26 124.52 254.29 123.3 254.29ZM114.25 353.42C112.77 353.42 111.57 354.62 111.57 356.1C111.57 357.58 112.77 358.79 114.25 358.79C115.73 358.79 116.93 357.57 116.93 356.1C116.93 354.63 115.73 353.42 114.25 353.42ZM114.25 358.33C113.03 358.33 112.04 357.33 112.04 356.1C112.04 354.87 113.03 353.88 114.25 353.88C115.47 353.88 116.46 354.88 116.46 356.1C116.46 357.32 115.47 358.33 114.25 358.33ZM89.73 335.93C88.25 335.93 87.05 337.13 87.05 338.6C87.05 340.07 88.25 341.28 89.73 341.28C91.21 341.28 92.4 340.08 92.4 338.6C92.4 337.12 91.2 335.93 89.73 335.93ZM89.73 340.82C88.51 340.82 87.51 339.82 87.51 338.6C87.51 337.38 88.51 336.39 89.73 336.39C90.95 336.39 91.94 337.39 91.94 338.6C91.94 339.81 90.96 340.82 89.73 340.82ZM118.68 303.66C117.2 303.66 116 304.86 116 306.33C116 307.8 117.2 309.03 118.68 309.03C120.16 309.03 121.35 307.83 121.35 306.33C121.35 304.83 120.15 303.66 118.68 303.66ZM118.68 308.56C117.46 308.56 116.46 307.57 116.46 306.33C116.46 305.09 117.46 304.12 118.68 304.12C119.9 304.12 120.89 305.11 120.89 306.33C120.89 307.55 119.9 308.56 118.68 308.56ZM121.35 270.81C119.88 270.81 118.68 272.01 118.68 273.49C118.68 274.97 119.88 276.16 121.35 276.16C122.82 276.16 124.03 274.96 124.03 273.49C124.03 272.02 122.83 270.81 121.35 270.81ZM121.35 275.7C120.14 275.7 119.14 274.72 119.14 273.49C119.14 272.26 120.14 271.27 121.35 271.27C122.56 271.27 123.57 272.27 123.57 273.49C123.57 274.71 122.57 275.7 121.35 275.7ZM139.93 314.47C138.46 314.47 137.26 315.67 137.26 317.14C137.26 318.24 137.93 319.19 138.87 319.6L138.78 319.03C138.15 318.64 137.72 317.94 137.72 317.14C137.72 315.93 138.72 314.93 139.93 314.93C140.12 314.93 140.3 314.95 140.47 315C140.55 314.87 140.64 314.74 140.73 314.59C140.48 314.51 140.21 314.47 139.93 314.47ZM104.94 285.78C103.46 285.78 102.25 286.99 102.25 288.47C102.25 289.95 103.46 291.15 104.94 291.15C106.42 291.15 107.62 289.95 107.62 288.47C107.62 286.99 106.42 285.78 104.94 285.78ZM104.94 290.68C103.7 290.68 102.71 289.69 102.71 288.47C102.71 287.25 103.7 286.24 104.94 286.24C106.18 286.24 107.15 287.23 107.15 288.47C107.15 289.71 106.16 290.68 104.94 290.68ZM36.07 314.47C34.59 314.47 33.39 315.67 33.39 317.14C33.39 318.61 34.59 319.82 36.07 319.82C37.55 319.82 38.75 318.62 38.75 317.14C38.75 315.66 37.55 314.47 36.07 314.47ZM36.07 319.36C34.85 319.36 33.86 318.36 33.86 317.14C33.86 315.92 34.85 314.93 36.07 314.93C37.29 314.93 38.28 315.93 38.28 317.14C38.28 318.35 37.29 319.36 36.07 319.36ZM89.73 360.56C88.29 360.56 87.12 361.69 87.05 363.12H87.52C87.58 361.96 88.55 361.02 89.73 361.02C90.91 361.02 91.87 361.95 91.93 363.11H92.4C92.33 361.69 91.16 360.56 89.73 360.56ZM69.02 318.64C67.55 318.64 66.35 319.84 66.35 321.31C66.35 322.78 67.55 323.99 69.02 323.99C70.49 323.99 71.7 322.79 71.7 321.31C71.7 319.83 70.5 318.64 69.02 318.64ZM69.02 323.53C67.81 323.53 66.81 322.55 66.81 321.31C66.81 320.07 67.81 319.1 69.02 319.1C70.23 319.1 71.24 320.1 71.24 321.31C71.24 322.52 70.24 323.53 69.02 323.53ZM70.35 269.45C68.88 269.45 67.68 270.65 67.68 272.13C67.68 273.61 68.88 274.8 70.35 274.8C71.82 274.8 73.05 273.61 73.05 272.13C73.05 270.65 71.83 269.45 70.35 269.45ZM70.35 274.34C69.14 274.34 68.14 273.37 68.14 272.13C68.14 270.89 69.14 269.91 70.35 269.91C71.56 269.91 72.59 270.91 72.59 272.13C72.59 273.35 71.59 274.34 70.35 274.34ZM22.78 337.66C22.6 337.66 22.43 337.68 22.27 337.71C22.21 337.89 22.15 338.06 22.09 338.23C22.31 338.16 22.54 338.12 22.78 338.12C24.02 338.12 25.01 339.12 25.01 340.34C25.01 341.56 24.02 342.57 22.78 342.57C22 342.57 21.32 342.17 20.93 341.56C20.87 341.74 20.81 341.91 20.75 342.08C21.24 342.66 21.97 343.03 22.78 343.03C24.26 343.03 25.48 341.83 25.48 340.34C25.48 338.85 24.26 337.66 22.78 337.66ZM51.95 333.22C50.47 333.22 49.27 334.42 49.27 335.89C49.27 337.36 50.47 338.59 51.95 338.59C53.43 338.59 54.64 337.39 54.64 335.89C54.64 334.39 53.42 333.22 51.95 333.22ZM51.95 338.12C50.73 338.12 49.73 337.13 49.73 335.89C49.73 334.65 50.73 333.68 51.95 333.68C53.17 333.68 54.18 334.67 54.18 335.89C54.18 337.11 53.18 338.12 51.95 338.12ZM94.63 312.25C93.15 312.25 91.93 313.45 91.93 314.93C91.93 316.41 93.15 317.61 94.63 317.61C96.11 317.61 97.3 316.41 97.3 314.93C97.3 313.45 96.1 312.25 94.63 312.25ZM94.63 317.14C93.39 317.14 92.39 316.15 92.39 314.93C92.39 313.71 93.39 312.72 94.63 312.72C95.87 312.72 96.84 313.71 96.84 314.93C96.84 316.15 95.84 317.14 94.63 317.14ZM87.68 228.78C87.31 229.28 86.74 229.62 86.07 229.66C85.86 229.8 85.66 229.94 85.45 230.09C85.6 230.12 85.75 230.13 85.91 230.13C86.99 230.13 87.92 229.49 88.35 228.57C88.13 228.64 87.91 228.7 87.69 228.78H87.68ZM95.96 258.58C94.49 258.58 93.29 259.78 93.29 261.25C93.29 262.72 94.49 263.95 95.96 263.95C97.43 263.95 98.66 262.73 98.66 261.25C98.66 259.77 97.46 258.58 95.96 258.58ZM95.96 263.49C94.75 263.49 93.75 262.49 93.75 261.25C93.75 260.01 94.75 259.04 95.96 259.04C97.17 259.04 98.2 260.04 98.2 261.25C98.2 262.46 97.2 263.49 95.96 263.49Z" fill="white"/>
<path d="M129.76 254.28C132.31 258.52 135.12 262.62 137.79 266.8C136.72 263.84 135.66 260.87 134.48 257.95C134.46 257.89 134.54 257.84 134.57 257.9C136.41 261.46 138.03 265.09 139.13 268.93C141.09 272.11 142.93 275.35 144.46 278.77C146.29 282.87 147.68 287.17 148.03 291.67C148.38 296.16 147.61 300.7 146.16 304.95C144.48 309.88 142.02 314.48 139.48 319.01C139.14 319.61 138.31 319.06 138.59 318.46C142.33 310.49 146.46 302.1 146.09 293.06C145.72 284.13 141.56 275.88 137.48 268.13C135.02 263.46 132.52 258.77 129.48 254.44C129.36 254.27 129.66 254.09 129.78 254.28H129.76Z" fill="#263238"/>
<path d="M117.7 314.19C112.33 314.74 106.93 315.48 101.69 316.82C99.08 317.49 96.52 318.27 93.97 319.11C92.7 319.53 91.42 319.91 90.13 320.28C88.81 320.66 87.39 321.01 86.01 321.06C85.89 321.06 85.89 321.25 86.01 321.25C87.35 321.29 88.64 321.32 89.98 321.18C91.25 321.04 92.52 320.77 93.77 320.47C96.42 319.82 99.04 319.04 101.68 318.36C107.01 316.99 112.35 315.62 117.77 314.64C118.02 314.59 117.96 314.17 117.7 314.2V314.19Z" fill="#263238"/>
<path d="M131.02 318.97C126.6 318.52 122.09 318.27 117.65 318.33C115.41 318.36 113.2 318.51 110.97 318.73C109.91 318.83 108.85 318.96 107.79 319.09C106.63 319.24 105.48 319.54 104.31 319.67C104.19 319.68 104.19 319.87 104.31 319.86C105.41 319.77 106.54 319.86 107.64 319.83C108.75 319.8 109.86 319.77 110.98 319.74C113.21 319.69 115.43 319.66 117.66 319.58C122.12 319.43 126.56 319.32 131.02 319.33C131.26 319.33 131.24 318.99 131.02 318.96V318.97Z" fill="#263238"/>
<path d="M71.4 240.8C37.83 276 -3.93001 349.55 4.32999 364.18C13.53 380.48 61.57 330.67 60.05 328.27C58.76 326.23 75.87 281.65 88.02 249.27C100.16 216.91 79.7 232.11 71.4 240.81V240.8Z" fill="#AD6359"/>
<path d="M30.26 283L78.47 291.68C78.47 291.68 90.51 257.52 92.89 238.55C94.23 227.92 87.98 227.48 80.12 233.13C52.61 252.9 30.25 283 30.25 283H30.26Z" fill="#FFC727"/>
<path d="M47.51 279.41C46.03 279.41 44.83 280.61 44.83 282.08C44.83 283.55 46.03 284.76 47.51 284.76C48.99 284.76 50.19 283.56 50.19 282.08C50.19 280.6 48.99 279.41 47.51 279.41ZM47.51 284.3C46.29 284.3 45.3 283.3 45.3 282.08C45.3 280.86 46.29 279.87 47.51 279.87C48.73 279.87 49.72 280.87 49.72 282.08C49.72 283.29 48.73 284.3 47.51 284.3ZM77.13 244.14C75.66 244.14 74.46 245.34 74.46 246.82C74.46 248.3 75.66 249.51 77.13 249.51C78.6 249.51 79.83 248.29 79.83 246.82C79.83 245.35 78.61 244.14 77.13 244.14ZM77.13 249.05C75.92 249.05 74.92 248.05 74.92 246.82C74.92 245.59 75.92 244.6 77.13 244.6C78.34 244.6 79.37 245.6 79.37 246.82C79.37 248.04 78.37 249.05 77.13 249.05ZM56.06 254.67C55.64 254.67 55.25 254.77 54.89 254.94H54.88C54.46 255.36 54.05 255.77 53.64 256.19C53.47 256.55 53.38 256.93 53.38 257.35C53.38 258.82 54.58 260.04 56.06 260.04C57.54 260.04 58.75 258.82 58.75 257.35C58.75 255.88 57.55 254.67 56.06 254.67ZM56.06 259.58C54.84 259.58 53.84 258.59 53.84 257.35C53.84 256.11 54.84 255.13 56.06 255.13C57.28 255.13 58.29 256.13 58.29 257.35C58.29 258.57 57.29 259.58 56.06 259.58ZM77.84 291.57L78.4 291.67C78.4 291.67 78.46 291.61 78.5 291.59C78.54 291.48 78.62 291.25 78.74 290.91C78.39 291.06 78.08 291.29 77.84 291.57ZM70.35 269.45C68.88 269.45 67.68 270.65 67.68 272.13C67.68 273.61 68.88 274.8 70.35 274.8C71.82 274.8 73.05 273.61 73.05 272.13C73.05 270.65 71.83 269.45 70.35 269.45ZM70.35 274.34C69.14 274.34 68.14 273.37 68.14 272.13C68.14 270.89 69.14 269.91 70.35 269.91C71.56 269.91 72.59 270.91 72.59 272.13C72.59 273.35 71.59 274.34 70.35 274.34ZM85.59 230.11C85.69 230.12 85.79 230.13 85.9 230.13C86.49 230.13 87.01 229.94 87.45 229.63C86.86 229.71 86.24 229.88 85.59 230.11Z" fill="white"/>
<path d="M78.16 283.78C70.85 281.83 50.88 277.12 37.5 275.75C37.42 275.75 37.35 276.04 37.43 276.06C48.39 278.88 70.61 282.92 78.06 284.23C78.2 284.25 78.3 283.82 78.16 283.78Z" fill="#263238"/>
<path d="M72.6 290.62C74.59 290.81 76.57 291.05 78.54 291.32L78.13 291.57C79.56 286.32 81.16 281.12 82.87 275.95C84.59 270.79 86.41 265.66 88.48 260.61C87.22 265.91 85.7 271.14 84.09 276.34C82.47 281.54 80.73 286.69 78.83 291.8L78.71 292.11L78.41 292.04C76.47 291.6 74.53 291.13 72.6 290.62Z" fill="#263238"/>
<path d="M85.29 271C85.7 269.89 86.3 268.91 86.93 267.96C87.59 267.02 88.28 266.12 89.11 265.25C89.02 265.84 88.78 266.38 88.54 266.91C88.3 267.44 87.99 267.93 87.67 268.42C87 269.37 86.26 270.27 85.29 271.01V271Z" fill="#263238"/>
<path d="M5.41997 365.68C14.53 375.53 35.55 374.78 88.66 377.84C96.01 378.26 112.95 327.2 105.13 326.35C95.27 325.27 56.79 323.23 53.96 323.43C30.06 325.16 -0.750029 359 5.41997 365.69V365.68Z" fill="#AD6359"/>
<path d="M94.45 325.39C94.45 325.39 116.82 325.71 128.52 329.51C144.19 334.6 155.62 345.45 160.13 350.28C169.56 360.37 185.37 391.29 177.26 397.4C169.92 402.93 155.35 370.51 155.35 370.51C155.35 370.51 175.65 401.11 165.59 406.15C155.53 411.18 140.76 372.59 140.76 372.59C140.76 372.59 160.92 404.5 149.72 408.05C141.26 410.73 125.91 376.53 125.91 376.53C125.91 376.53 143.05 404.08 134.46 407.21C124.97 410.67 108.83 379.99 108.83 379.99C85.67 384.28 72.89 376.84 64.43 370.47C62.38 368.93 94.46 325.4 94.46 325.4L94.45 325.39Z" fill="#AD6359"/>
<path d="M149.01 359.48C151.53 362.99 154.09 366.52 156.29 370.24C158.48 373.96 160.55 377.76 162.39 381.67C166.9 391.25 168.22 397.96 168.1 397.56C165.1 387.97 157.45 374.53 155.25 370.81C153.06 367.1 151.06 363.27 148.87 359.56C148.81 359.47 148.95 359.4 149.01 359.48Z" fill="#263238"/>
<path d="M135.43 367.16C138.45 371.78 141.61 376.25 144.43 381.01C147.23 385.74 149.47 390.47 151.94 395.38C152.13 395.76 151.86 395.74 151.66 395.36C149 390.55 146.17 386.31 143.45 381.53C140.74 376.77 138.2 371.87 135.32 367.21C135.27 367.14 135.39 367.08 135.44 367.15L135.43 367.16Z" fill="#263238"/>
<path d="M122.59 371.66C127.56 378.48 131.27 386.22 134.73 393.89C134.9 394.27 134.56 394.21 134.36 393.83C130.46 386.36 127.46 380.48 122.35 371.84C122.27 371.71 122.48 371.52 122.59 371.67V371.66Z" fill="#263238"/>
<path d="M34.29 331.87C37.49 329.27 46.66 322.95 56.46 323.22C56.57 323.22 56.59 323.38 56.48 323.39C48.54 324.3 37.7 329.73 34.39 332C34.3 332.06 34.22 331.93 34.3 331.87H34.29Z" fill="#263238"/>
<path d="M93.84 228.25C94.02 230.57 102.46 246.73 112.76 247.83C116.11 248.18 118.85 229.96 118.85 229.96L119.36 228.66L126.48 210.47L106.54 192.86L103.63 190.49C103.63 190.49 102.01 195.6 100.06 201.97C99.97 202.27 99.88 202.56 99.78 202.88C99.66 203.24 99.54 203.57 99.45 203.91C99.15 204.86 98.84 205.83 98.56 206.8C98.34 207.54 98.12 208.26 97.92 209.04C97.7 209.82 97.5 210.59 97.27 211.37C95.23 219.13 93.79 227.27 93.86 228.25H93.84Z" fill="#AD6359"/>
<path d="M100.05 201.97C103.14 217.8 114.17 225.75 119.36 228.66L126.48 210.47L106.54 192.86L103.63 190.49C103.63 190.49 102.01 195.6 100.06 201.97H100.05Z" fill="#263238"/>
<path d="M158.23 188.8C153.71 222.78 132.85 223.92 125.52 222.93C118.87 222.04 96.33 218.16 97.31 183.89C98.29 149.62 115.52 140.98 130.84 142.21C146.16 143.44 162.74 154.81 158.22 188.79L158.23 188.8Z" fill="#AD6359"/>
<path d="M153.35 185.15C152.58 184.9 151.91 184.54 151.18 184.21C150.35 183.84 149.65 183.63 149.15 182.82C148.88 182.39 149.06 181.66 149.45 181.36C150.37 180.66 151.5 180.86 152.51 181.27C153.61 181.71 154.35 182.33 154.93 183.37C155.49 184.37 154.37 185.49 153.35 185.15Z" fill="#263238"/>
<path d="M130.37 179.32C131.18 179.39 131.93 179.32 132.74 179.31C133.65 179.29 134.37 179.38 135.15 178.84C135.57 178.55 135.69 177.81 135.45 177.38C134.88 176.37 133.77 176.12 132.67 176.09C131.48 176.06 130.56 176.34 129.62 177.07C128.71 177.77 129.31 179.24 130.37 179.33V179.32Z" fill="#263238"/>
<path d="M134 186.79C134 186.7 133.8 186.87 133.79 186.96C133.45 189.27 132.67 191.86 130.45 192.25C130.38 192.26 130.37 192.38 130.45 192.38C133.05 192.48 134.05 189.03 134.01 186.79H134Z" fill="#263238"/>
<path d="M132.38 184.02C128.74 183.07 127.11 190.43 130.48 191.31C133.8 192.17 135.43 184.82 132.38 184.02Z" fill="#263238"/>
<path d="M130.85 184.09C130.12 184.36 129.32 184.96 128.53 184.86C127.61 184.75 127.11 183.83 126.69 182.96C126.65 182.87 126.57 182.92 126.55 183.02C126.22 184.43 126.44 185.99 127.9 186.54C129.24 187.04 130.5 186.01 131.17 184.67C131.29 184.42 131.15 183.98 130.86 184.09H130.85Z" fill="#263238"/>
<path d="M147.6 188.92C147.64 188.84 147.75 189.07 147.73 189.16C147.14 191.42 146.84 194.11 148.72 195.33C148.78 195.37 148.75 195.48 148.67 195.45C146.24 194.52 146.67 190.96 147.6 188.91V188.92Z" fill="#263238"/>
<path d="M150.17 187.01C153.89 187.57 152.5 194.98 149.05 194.46C145.66 193.95 147.05 186.54 150.17 187.01Z" fill="#263238"/>
<path d="M151.63 187.79C152.14 188.29 152.59 189.12 153.28 189.29C154.08 189.5 154.83 188.81 155.49 188.14C155.56 188.07 155.61 188.14 155.59 188.24C155.36 189.66 154.62 191.05 153.2 191.06C151.91 191.07 151.23 189.69 151.16 188.21C151.15 187.94 151.42 187.58 151.63 187.78V187.79Z" fill="#263238"/>
<path d="M130.36 206.44C130.76 207.11 131.1 207.98 131.9 208.27C132.67 208.55 133.68 208.44 134.48 208.36C134.56 208.36 134.61 208.45 134.55 208.5C133.73 209.21 132.35 209.42 131.36 208.95C130.39 208.5 130.12 207.48 130.12 206.48C130.12 206.34 130.31 206.34 130.36 206.44Z" fill="#263238"/>
<path d="M141.64 200.18C141.64 200.18 141.4 203.69 141.06 205.3C141.03 205.45 140.62 205.44 140.07 205.36C140.04 205.36 140.03 205.37 140.01 205.35C137.08 205.2 134.42 203.62 133.18 200.94C133.1 200.76 133.34 200.64 133.47 200.77C135.27 202.77 137.53 203.66 140.04 204.23C140.25 203.81 140.25 198.2 140.51 198.24C141.41 198.35 143.01 199.31 143.99 199.83C144.71 192.53 144.24 185.18 145.07 177.92C145.1 177.66 145.48 177.66 145.51 177.9C146.54 185.57 145.9 193.99 145.36 201.55C145.3 202.49 142.24 200.59 141.65 200.18H141.64Z" fill="#263238"/>
<path d="M106.59 147.65C105.43 150.34 89.98 152.19 83.18 141.76C76.48 131.48 85.35 118.83 97.64 124.87C105.41 128.68 109.04 141.96 106.59 147.66V147.65Z" fill="#263238"/>
<path d="M82.97 127.63C85.64 124.68 89.3 122.88 92.97 122.3C96.68 121.72 100.37 123 102.69 125.84C105.14 128.61 106.41 132.33 107.09 136.09C107.4 137.99 107.55 139.93 107.51 141.87C107.51 143.82 107.31 145.78 106.58 147.64C107.76 145.99 108.21 143.94 108.57 141.96C108.87 139.95 108.96 137.91 108.77 135.87C108.4 131.83 107.14 127.65 104.33 124.4C102.92 122.8 101.09 121.46 99 120.81C96.92 120.17 94.69 120.13 92.65 120.61C88.57 121.55 84.95 124.14 82.96 127.61L82.97 127.63Z" fill="#263238"/>
<path d="M99.01 185.4C105.01 187.86 110.45 174.05 110.45 174.05C110.45 174.05 138.15 176.71 146.22 155.74C146.22 155.74 147.05 170.71 159.25 180.68C159.25 180.68 164.7 156.78 147.2 147.13C147.2 147.13 126.22 132.39 108.16 147.32C90.1 162.25 94.99 183.74 99.02 185.4H99.01Z" fill="#263238"/>
<path d="M146.74 154.17C146.21 157.56 144.81 160.8 142.9 163.7C140.99 166.59 138.5 169.17 135.55 171.06C134.85 171.59 134.03 171.93 133.28 172.37L132.13 172.99C131.73 173.16 131.32 173.32 130.91 173.47C130.09 173.77 129.29 174.11 128.46 174.37C127.62 174.59 126.77 174.78 125.92 174.97C125.5 175.06 125.08 175.17 124.65 175.24L123.36 175.38L120.79 175.65C119.07 175.66 117.35 175.59 115.65 175.49C117.35 175.24 119.04 175.16 120.71 174.89L123.19 174.41L124.43 174.18C124.84 174.07 125.23 173.93 125.63 173.81C126.43 173.55 127.22 173.31 128.02 173.08C128.8 172.79 129.55 172.43 130.32 172.12L131.47 171.64L132.55 171.03C133.26 170.6 134.03 170.28 134.68 169.77C137.49 168.01 139.85 165.62 141.92 163.02C142.95 161.7 143.85 160.29 144.65 158.81C145.48 157.34 146.16 155.79 146.73 154.18L146.74 154.17Z" fill="#263238"/>
<path d="M97.25 162.75L94.48 165.13L101.31 176.66L107.42 171.23L97.26 162.74L97.25 162.75ZM101.94 173.26L96.96 165.86L97.59 165.29L104.12 171.38L101.93 173.26H101.94Z" fill="#FFC727"/>
<path d="M99.95 157.6L98.28 160.85L108.95 168.96L112.56 161.63L99.95 157.59V157.6ZM108.26 165.56L100.86 160.58L101.23 159.81L109.58 162.99L108.26 165.55V165.56Z" fill="#FFC727"/>
<path d="M102.37 187.22C102.37 187.22 97.39 175.15 92.07 176.7C86.75 178.25 88.88 194.61 93.98 197.92C99.08 201.23 102.24 196.56 102.24 196.56L102.37 187.21V187.22Z" fill="#AD6359"/>
<path d="M92.8 181.38C92.71 181.35 92.67 181.47 92.74 181.52C96.29 183.97 97.54 188.04 98.15 192.11C97.31 190.41 95.91 189.27 93.67 190.22C93.55 190.27 93.61 190.45 93.73 190.45C95.4 190.46 96.5 191 97.29 192.52C97.85 193.6 98.12 194.86 98.44 196.03C98.54 196.42 99.22 196.37 99.17 195.94C99.17 195.91 99.17 195.87 99.16 195.84C100.36 190.89 98.04 183.07 92.81 181.38H92.8Z" fill="#263238"/>
<path d="M253.53 48.54V76.52H245.62V48.54C245.62 37.9 237.54 29.25 227.6 29.25C217.66 29.25 209.58 37.9 209.58 48.54V76.52H201.67V48.54C201.67 33.3 213.3 20.91 227.6 20.91C241.9 20.91 253.53 33.3 253.53 48.54Z" fill="#C7C7C7"/>
<path d="M201.67 55.81L209.58 56.13V76.52H201.67V55.81Z" fill="#A6A6A6"/>
<path d="M253.53 57.93V76.52H245.62V57.6L253.53 57.93Z" fill="#A6A6A6"/>
<path d="M263.66 60.59H191.54V126.02H263.66V60.59Z" fill="#FFC727"/>
<path opacity="0.1" d="M263.66 60.59H227.6V126.02H263.66V60.59Z" fill="black"/>
<path d="M230.65 95.7L233.67 110.02H220.86L223.88 95.7C222.08 94.56 220.86 92.57 220.86 90.29C220.86 86.72 223.73 83.88 227.27 83.88C230.81 83.88 233.68 86.72 233.68 90.29C233.68 92.57 232.46 94.56 230.66 95.7H230.65Z" fill="#263238"/>
</g>
<defs>
<clipPath id="clip0_20_2">
<rect width="427.36" height="413.56" fill="white"/>
</clipPath>
</defs>
</svg>
