<?xml version="1.0" encoding="UTF-8"?>
<svg id="Layer_1" data-name="Layer 1" xmlns="http://www.w3.org/2000/svg" viewBox="0 0 169.21 48.56">
  <defs>
    <style>
      .cls-1 {
        fill: #211d59;
      }
    </style>
  </defs>
  <g>
    <g>
      <path class="cls-1" d="M34.2,13.03l-.41.25-8.66,5.2-.48.29.33-7.92.08-1.82,1.79-1.05c.23-.14.52-.14.76,0l6.59,3.75c.5.29.51,1.01.02,1.31Z"/>
      <path class="cls-1" d="M24.65,19.17c-.07,0-.14-.02-.2-.06-.13-.07-.2-.21-.19-.36l.41-9.74c0-.14.08-.26.2-.33l1.79-1.05c.36-.21.8-.21,1.15,0l6.59,3.75c.36.2.58.57.58.99,0,.41-.2.79-.56,1l-.41.25-9.14,5.49c-.06.04-.13.06-.2.06ZM25.44,9.26l-.37,8.79,8.92-5.36s0,0,0,0c.16-.1.18-.25.17-.31,0-.06-.02-.22-.18-.31l-6.59-3.75c-.11-.06-.25-.06-.36,0l-1.6.94Z"/>
    </g>
    <path class="cls-1" d="M18.59,24.91c-.22,0-.43-.06-.63-.17l-8.31-4.91c-.2-.12-.27-.38-.15-.58.12-.2.38-.27.58-.15l8.31,4.91c.12.07.27.07.39,0l17.02-10.23c.2-.12.46-.06.58.14s.06.46-.14.58l-17.02,10.23c-.19.12-.41.17-.63.17Z"/>
    <g>
      <path class="cls-1" d="M20.77,11.54l-.08,1.82-.33,7.99-1.22.73c-.24.14-.53.15-.78,0l-6.26-3.7-.4-.24c-.5-.29-.5-1.01,0-1.31l9.07-5.3Z"/>
      <path class="cls-1" d="M18.75,22.59c-.2,0-.4-.05-.59-.16l-6.67-3.94c-.36-.21-.57-.58-.57-1,0-.41.21-.79.57-.99l9.07-5.3c.13-.07.28-.07.41,0,.12.07.2.21.19.36l-.41,9.81c0,.13-.08.26-.19.32l-1.22.73c-.18.11-.39.17-.6.17ZM20.34,12.25l-8.44,4.93c-.16.09-.18.25-.18.31,0,.06.02.22.18.31l6.67,3.94c.11.07.25.07.37,0l1.03-.62.37-8.87Z"/>
    </g>
    <g>
      <path class="cls-1" d="M34.2,29.21l-.41.25-8.66,5.2-.48.29.33-7.92.08-1.82,1.79-1.05c.23-.14.52-.14.76,0l6.59,3.75c.5.29.51,1.01.02,1.31Z"/>
      <path class="cls-1" d="M24.65,35.35c-.07,0-.14-.02-.2-.06-.13-.07-.2-.21-.19-.36l.41-9.74c0-.14.08-.26.2-.33l1.79-1.05c.36-.21.8-.21,1.15,0l6.59,3.75c.36.2.58.57.58.99,0,.41-.2.79-.56,1l-.41.25-9.14,5.49c-.06.04-.13.06-.2.06ZM25.44,25.44l-.37,8.79,8.92-5.36s0,0,0,0c.16-.1.18-.25.17-.31,0-.06-.02-.22-.18-.31l-6.59-3.75c-.11-.06-.25-.06-.36,0l-1.6.94Z"/>
    </g>
    <path class="cls-1" d="M18.59,41.08c-.22,0-.43-.06-.63-.17l-8.31-4.91c-.2-.12-.27-.38-.15-.58.12-.2.38-.27.58-.15l8.31,4.91c.12.07.27.07.39,0l17.02-10.23c.2-.12.46-.06.58.14s.06.46-.14.58l-17.02,10.23c-.19.12-.41.17-.63.17Z"/>
    <g>
      <path class="cls-1" d="M20.77,27.71l-.08,1.82-.33,7.99-1.22.73c-.24.14-.53.15-.78,0l-6.26-3.7-.4-.24c-.5-.29-.5-1.01,0-1.31l9.07-5.3Z"/>
      <path class="cls-1" d="M18.75,38.76c-.2,0-.4-.05-.59-.16l-6.67-3.94c-.36-.21-.57-.58-.57-1,0-.41.21-.79.57-.99l9.07-5.3c.13-.07.28-.07.41,0,.12.07.2.21.19.36l-.41,9.81c0,.13-.08.26-.19.32l-1.22.73c-.18.11-.39.17-.6.17ZM20.34,28.42l-8.44,4.93c-.16.09-.18.25-.18.31,0,.06.02.22.18.31l6.67,3.94c.11.07.25.07.37,0l1.03-.62.37-8.87Z"/>
    </g>
  </g>
  <g>
    <path class="cls-1" d="M59.08,15.81c-1.09,0-2.1.19-3.03.58-.92.39-1.72.94-2.39,1.67-.67.72-1.19,1.6-1.56,2.62-.37,1.02-.56,2.17-.56,3.44s.2,2.42.61,3.45c.4,1.02.96,1.9,1.67,2.62.71.72,1.54,1.27,2.49,1.66.96.39,1.98.58,3.07.58.79,0,1.51-.11,2.14-.32.64-.21,1.21-.52,1.72-.92v-6.35h-3.43v-1.08h6.47v7.96c-.53.28-1.06.53-1.6.75-.54.22-1.12.4-1.74.55-.62.15-1.31.26-2.06.33-.75.08-1.59.12-2.54.12-1,0-1.95-.11-2.85-.33-.9-.22-1.74-.54-2.51-.95-.77-.41-1.46-.9-2.08-1.47-.62-.57-1.15-1.2-1.58-1.89-.43-.69-.77-1.43-1-2.23-.24-.79-.35-1.62-.35-2.47s.11-1.67.33-2.48c.22-.81.54-1.57.96-2.28.42-.71.93-1.37,1.53-1.96s1.28-1.1,2.04-1.53c.76-.43,1.58-.76,2.47-1,.89-.24,1.84-.35,2.84-.35s1.84.13,2.66.39c.81.26,1.56.6,2.23,1.03.67.43,1.26.92,1.78,1.48s.97,1.15,1.34,1.76l-1.31.87c-.77-1.47-1.61-2.54-2.55-3.22-.93-.68-2.01-1.02-3.22-1.02Z"/>
    <path class="cls-1" d="M77.38,33.34c-1.07,0-2.06-.19-2.96-.56-.9-.37-1.68-.88-2.34-1.52-.66-.64-1.17-1.39-1.54-2.25-.37-.86-.55-1.78-.55-2.77s.18-2,.55-2.9c.37-.91.88-1.7,1.54-2.37.66-.67,1.43-1.2,2.34-1.59.9-.39,1.89-.58,2.96-.58s2.05.18,2.94.53c.9.36,1.67.84,2.33,1.46s1.17,1.35,1.54,2.18c.37.83.55,1.73.55,2.68,0,1.06-.18,2.05-.55,2.98s-.88,1.75-1.54,2.44c-.66.7-1.43,1.25-2.33,1.65-.9.4-1.88.61-2.94.61ZM77.91,32.31c.55,0,1.05-.14,1.5-.42.46-.28.85-.66,1.17-1.14.33-.48.58-1.03.77-1.66s.27-1.29.27-1.99c0-1.01-.09-1.96-.26-2.84s-.46-1.65-.85-2.31c-.39-.66-.9-1.17-1.53-1.55-.63-.38-1.39-.57-2.29-.57-.46,0-.92.13-1.35.4s-.82.64-1.15,1.1c-.33.46-.6,1.01-.8,1.63-.2.62-.3,1.29-.3,1.99,0,1.02.11,1.98.32,2.87.21.89.53,1.67.94,2.34.41.67.92,1.19,1.52,1.58.6.39,1.28.58,2.04.58Z"/>
    <path class="cls-1" d="M91.48,33.04h-2.79V12.71l1.98-.79h.81v21.12Z"/>
    <path class="cls-1" d="M105.97,31.69c-.32.26-.67.49-1.04.69-.37.21-.76.38-1.17.52-.41.14-.81.25-1.22.33-.41.08-.81.12-1.2.12-.82,0-1.59-.19-2.3-.57-.71-.38-1.34-.9-1.87-1.54-.53-.65-.95-1.4-1.26-2.26-.31-.86-.46-1.77-.46-2.73s.19-1.87.58-2.76.91-1.69,1.58-2.38c.67-.7,1.44-1.25,2.33-1.67.89-.42,1.84-.63,2.85-.63.68,0,1.28.12,1.78.36s.98.55,1.41.94v-7.38l1.95-.79h.81v21.12h-2.76v-1.35ZM105.97,23.5c0-.55-.1-1.04-.31-1.5-.21-.45-.47-.84-.8-1.16-.33-.32-.7-.57-1.11-.75-.41-.18-.83-.27-1.25-.27-.56,0-1.07.14-1.56.41-.48.27-.9.66-1.26,1.15-.36.5-.64,1.09-.85,1.78s-.31,1.45-.31,2.27c0,.89.11,1.73.34,2.5s.54,1.45.94,2.03c.4.58.86,1.03,1.39,1.37s1.1.5,1.71.5c.29,0,.58-.04.88-.12.3-.08.58-.18.84-.31s.51-.28.74-.46c.23-.17.43-.36.61-.55v-6.9Z"/>
    <path class="cls-1" d="M125.29,32.31c.45,0,.89-.06,1.33-.18.44-.12.83-.31,1.17-.55.35-.24.62-.54.83-.89s.31-.76.31-1.22c0-.56-.14-1.05-.43-1.48-.29-.43-.66-.83-1.13-1.19-.46-.36-.99-.7-1.59-1.02s-1.2-.64-1.82-.96c-.62-.32-1.23-.65-1.82-1-.6-.35-1.13-.74-1.59-1.17-.46-.43-.84-.92-1.13-1.45-.29-.53-.43-1.15-.43-1.84s.13-1.33.39-1.93c.26-.59.64-1.1,1.14-1.54.5-.43,1.12-.77,1.85-1.02.73-.25,1.57-.37,2.52-.37.86,0,1.62.09,2.29.27.67.18,1.27.45,1.78.81.51.35.94.79,1.3,1.31.36.52.64,1.12.86,1.8l-1.56.71c-.18-.56-.41-1.06-.7-1.52-.28-.46-.62-.85-1.01-1.18-.39-.33-.85-.58-1.36-.76-.51-.18-1.1-.27-1.74-.27-.57,0-1.07.08-1.5.24-.43.16-.79.37-1.07.63-.29.26-.5.55-.64.87-.14.32-.21.65-.21.99,0,.47.15.91.44,1.3.29.4.68.77,1.16,1.12.48.35,1.03.69,1.65,1.02.61.33,1.24.66,1.88,1,.64.34,1.26.69,1.88,1.05s1.16.76,1.65,1.2c.48.43.87.91,1.16,1.42.29.51.44,1.09.44,1.73,0,.72-.14,1.4-.41,2.03-.27.63-.68,1.18-1.23,1.65-.55.47-1.23.84-2.04,1.11-.81.27-1.75.41-2.83.41-.87,0-1.65-.1-2.34-.29-.68-.19-1.29-.47-1.81-.83-.52-.36-.97-.81-1.35-1.33-.37-.52-.68-1.12-.92-1.8l1.63-.67c.19.59.45,1.12.77,1.58.32.46.7.86,1.13,1.18.43.32.9.57,1.43.74.52.17,1.08.26,1.67.26Z"/>
    <path class="cls-1" d="M135.81,13.7c0-.22.04-.42.12-.61.08-.19.2-.36.34-.51s.31-.26.51-.34.4-.12.61-.12.42.04.61.12c.19.08.36.2.51.34.15.15.26.31.34.51.08.19.12.4.12.61s-.04.42-.12.61c-.08.19-.2.36-.34.51s-.31.26-.51.34c-.19.08-.4.12-.61.12s-.42-.04-.61-.12-.36-.2-.51-.34c-.15-.15-.26-.31-.34-.51-.08-.19-.12-.4-.12-.61ZM136.02,19.58l1.95-.79h.81v14.25h-2.76v-13.46Z"/>
    <path class="cls-1" d="M145.89,18.79h.79v3.14c.28-.36.59-.72.94-1.09s.72-.71,1.13-1.02c.41-.3.87-.55,1.37-.74.5-.19,1.05-.29,1.64-.29.83,0,1.58.17,2.25.52.67.35,1.25.82,1.73,1.41.48.59.85,1.29,1.11,2.08.26.8.39,1.65.39,2.55,0,1.16-.16,2.22-.48,3.2-.32.98-.77,1.82-1.37,2.53-.59.71-1.31,1.26-2.16,1.66-.85.4-1.79.59-2.84.59-.38,0-.74-.02-1.07-.06s-.65-.1-.94-.18c-.3-.08-.58-.19-.86-.31-.28-.13-.56-.28-.84-.46v6.61h-2.79v-19.36l1.99-.78ZM146.68,29.27c0,.42.09.81.27,1.18.18.37.44.69.77.97.33.28.72.5,1.17.66.46.16.96.24,1.5.24s1.01-.13,1.47-.4.86-.64,1.2-1.13c.34-.49.61-1.07.81-1.74.2-.67.29-1.42.29-2.24,0-1.03-.09-1.93-.27-2.7s-.44-1.41-.76-1.92c-.32-.51-.71-.89-1.15-1.15-.44-.25-.93-.38-1.45-.38-.4,0-.79.06-1.15.18-.37.12-.72.29-1.04.5-.33.21-.63.45-.91.72-.28.27-.53.56-.74.86v6.34Z"/>
  </g>
</svg>