<svg width="281" height="46" viewBox="0 0 281 46" fill="none" xmlns="http://www.w3.org/2000/svg">
<g clip-path="url(#clip0_1_2)">
<rect width="281" height="46" fill="white"/>
<path d="M19.65 38C16.0833 38 13.5 37.2167 11.9 35.65C10.3 34.0833 9.5 31.55 9.5 28.05V18.9C9.5 15.3 10.3833 12.6833 12.15 11.05C13.9167 9.38333 16.4167 8.55 19.65 8.55H36.35C38.65 8.55 40.4 8.68333 41.6 8.95C42.8333 9.18333 43.45 9.43333 43.45 9.7L41.9 15.95C41.0667 15.85 39.4333 15.75 37 15.65C34.6 15.5167 31.5667 15.45 27.9 15.45H23.25C21.6833 15.45 20.6167 15.75 20.05 16.35C19.5167 16.9167 19.25 17.8 19.25 19V27.55C19.25 28.6833 19.4833 29.5667 19.95 30.2C20.45 30.8 21.55 31.1 23.25 31.1H27.3C28.8333 31.1 30.2167 31.1 31.45 31.1C32.6833 31.0667 33.7667 31.0333 34.7 31V27.2L32.7 27.25L26.15 27.75V20.85H44.25V35.9L44.75 36.95C44.75 37.2167 44.05 37.4667 42.65 37.7C41.25 37.9 38.8833 38 35.55 38H19.65ZM61.398 38C57.8647 38 55.2814 37.2167 53.648 35.65C52.048 34.05 51.248 31.5167 51.248 28.05V18.5C51.248 15.1 52.048 12.6 53.648 11C55.248 9.4 57.8314 8.6 61.398 8.6H75.998C79.498 8.6 82.048 9.4 83.648 11C85.2814 12.6 86.098 15.1 86.098 18.5V28.05C86.098 31.5167 85.2814 34.05 83.648 35.65C82.0147 37.2167 79.4647 38 75.998 38H61.398ZM64.848 31.2H72.598C75.198 31.2 76.498 30.0167 76.498 27.65V18.9C76.498 16.5667 75.198 15.4 72.598 15.4H64.848C63.5147 15.4 62.5147 15.6667 61.848 16.2C61.1814 16.7333 60.848 17.6333 60.848 18.9V27.65C60.848 28.8833 61.1814 29.7833 61.848 30.35C62.5147 30.9167 63.5147 31.2 64.848 31.2ZM93.5938 38L94.0938 34V8.6H103.694V31.15H121.394L124.394 37.45C124.394 37.5833 123.944 37.7167 123.044 37.85C122.144 37.95 120.594 38 118.394 38H93.5938ZM128.908 38V12.6L128.408 8.6H151.608C155.642 8.6 158.658 9.4 160.658 11C162.692 12.6 163.708 15.1 163.708 18.5V28.05C163.708 31.5167 162.708 34.05 160.708 35.65C158.708 37.2167 155.675 38 151.608 38H128.908ZM138.658 31.1H150.108C152.675 31.1 153.975 29.9167 154.008 27.55V18.9C154.008 17.9333 153.725 17.1167 153.158 16.45C152.592 15.75 151.575 15.4 150.108 15.4H138.658V31.1ZM187.33 38C185.063 38 183.396 37.9 182.33 37.7C181.263 37.5 180.73 37.2667 180.73 37L183.73 30.55C184.496 30.6833 186.08 30.8167 188.48 30.95C190.88 31.05 193.996 31.1 197.83 31.1H201.78C202.946 31.1 203.73 30.9333 204.13 30.6C204.53 30.2667 204.73 29.7833 204.73 29.15V28.65C204.73 27.85 204.53 27.3 204.13 27C203.73 26.7 202.946 26.55 201.78 26.55H190.33C186.963 26.55 184.513 25.9333 182.98 24.7C181.446 23.4333 180.68 21.3833 180.68 18.55V16.75C180.68 15.2833 180.946 13.9333 181.48 12.7C182.046 11.4667 182.996 10.4833 184.33 9.75C185.663 8.98333 187.496 8.6 189.83 8.6H206.43C208.463 8.6 210.146 8.71667 211.48 8.95C212.846 9.18333 213.53 9.43333 213.53 9.7L212.03 15.9C211.096 15.8 209.33 15.7 206.73 15.6C204.163 15.4667 200.896 15.4 196.93 15.4L193.33 15.35C192.296 15.35 191.563 15.5 191.13 15.8C190.696 16.0667 190.463 16.5833 190.43 17.35V17.7C190.43 18.4667 190.663 19 191.13 19.3C191.596 19.6 192.346 19.75 193.38 19.75H204.38C206.513 19.75 208.33 19.9667 209.83 20.4C211.33 20.8333 212.48 21.6333 213.28 22.8C214.08 23.9333 214.48 25.6167 214.48 27.85V29.65C214.48 32.15 213.83 34.1667 212.53 35.7C211.263 37.2333 209.046 38 205.88 38H187.33ZM221.475 38V8.6H231.075V38H221.475ZM239.553 38V12.6L239.053 8.55H262.203C264.436 8.55 266.219 8.8 267.553 9.3C268.919 9.76667 269.936 10.4167 270.603 11.25C271.303 12.05 271.753 13 271.953 14.1C272.186 15.1667 272.303 16.3 272.303 17.5V21.45C272.303 23.05 272.036 24.5333 271.503 25.9C271.003 27.2333 270.053 28.3167 268.653 29.15C267.286 29.95 265.303 30.35 262.703 30.35H259.253C257.153 30.35 255.186 30.3 253.353 30.2C251.553 30.1 250.203 30.0167 249.303 29.95V38H239.553ZM249.303 23.55H259.653C260.753 23.55 261.519 23.3333 261.953 22.9C262.386 22.4667 262.603 21.7667 262.603 20.8V18.25C262.603 17.2833 262.403 16.5833 262.003 16.15C261.603 15.6833 260.836 15.45 259.703 15.45H249.303V23.55Z" fill="#060748"/>
</g>
<defs>
<clipPath id="clip0_1_2">
<rect width="281" height="46" fill="white"/>
</clipPath>
</defs>
</svg>
